M48
; DRILL file {KiCad 9.0.1} date 2025-05-26T15:55:44+0300
; FORMAT={-:-/ absolute / metric / decimal}
; #@! TF.CreationDate,2025-05-26T15:55:44+03:00
; #@! TF.GenerationSoftware,Kicad,Pcbnew,9.0.1
; #@! TF.FileFunction,Plated,1,2,PTH
FMAT,2
METRIC
; #@! TA.AperFunction,Plated,PTH,ViaDrill
T1C0.300
; #@! TA.AperFunction,Plated,PTH,ViaDrill
T2C0.500
; #@! TA.AperFunction,Plated,PTH,ComponentDrill
T3C0.800
; #@! TA.AperFunction,Plated,PTH,ComponentDrill
T4C1.000
%
G90
G05
T1
X77.445Y-97.587
X77.724Y-80.289
X78.842Y-106.248
X78.918Y-76.683
X82.245Y-97.257
X82.728Y-75.108
X83.058Y-108.814
X87.986Y-85.547
X88.671Y-90.551
X89.916Y-108.585
X90.297Y-101.371
X91.084Y-75.108
X94.031Y-72.009
X94.031Y-85.877
X96.266Y-100.66
X96.571Y-108.255
X98.095Y-71.425
X98.577Y-89.941
X98.882Y-103.276
X102.184Y-85.877
X103.0Y-78.9
X103.657Y-100.965
X106.401Y-97.993
X108.153Y-101.879
X108.255Y-108.839
X109.271Y-105.512
X113.157Y-100.559
X113.665Y-92.304
X113.894Y-70.409
X113.894Y-85.877
X115.2Y-76.1
X117.348Y-108.61
X118.847Y-79.781
X119.532Y-98.755
X120.142Y-92.354
X121.437Y-85.979
X121.844Y-75.717
X122.7Y-70.377
X123.139Y-103.759
X127.178Y-108.052
X128.981Y-95.072
X129.21Y-72.669
X129.286Y-84.684
X131.8Y-70.5
X133.934Y-87.249
X140.665Y-88.722
X144.145Y-93.777
T2
X79.375Y-97.815
X86.081Y-75.184
X98.577Y-92.837
X99.619Y-97.46
X100.559Y-76.835
X100.584Y-98.374
X113.208Y-105.588
T3
X110.592Y-73.482
X110.592Y-76.022
X110.592Y-78.562
X110.592Y-81.102
X110.592Y-83.642
X110.592Y-86.182
X110.592Y-88.722
X110.592Y-91.262
X110.592Y-93.802
X110.592Y-96.342
X110.592Y-98.882
X110.592Y-101.422
X125.832Y-73.482
X125.832Y-76.022
X125.832Y-78.562
X125.832Y-81.102
X125.832Y-83.642
X125.832Y-86.182
X125.832Y-88.722
X125.832Y-91.262
X125.832Y-93.802
X125.832Y-96.342
X125.832Y-98.882
X125.832Y-101.422
T4
X100.457Y-107.544
X101.498Y-72.568
X102.997Y-107.544
X105.537Y-107.544
X105.918Y-72.568
X121.153Y-107.544
X123.693Y-107.544
X143.764Y-79.858
X143.764Y-82.398
X143.764Y-84.938
X143.794Y-72.0
X143.794Y-76.0
M30
