%TF.GenerationSoftware,KiCad,Pcbnew,9.0.1*%
%TF.CreationDate,2025-05-26T15:55:47+03:00*%
%TF.ProjectId,KeyboardSecurity,4b657962-6f61-4726-9453-656375726974,rev?*%
%TF.SameCoordinates,Original*%
%TF.FileFunction,Legend,Top*%
%TF.FilePolarity,Positive*%
%FSLAX46Y46*%
G04 Gerber Fmt 4.6, Leading zero omitted, Abs format (unit mm)*
G04 Created by KiCad (PCBNEW 9.0.1) date 2025-05-26 15:55:47*
%MOMM*%
%LPD*%
G01*
G04 APERTURE LIST*
%ADD10C,0.100000*%
%ADD11C,0.150000*%
%ADD12C,0.120000*%
%ADD13C,0.127000*%
%ADD14C,0.200000*%
G04 APERTURE END LIST*
D10*
X140525038Y-83093906D02*
X140477419Y-83189144D01*
X140477419Y-83189144D02*
X140477419Y-83332001D01*
X140477419Y-83332001D02*
X140525038Y-83474858D01*
X140525038Y-83474858D02*
X140620276Y-83570096D01*
X140620276Y-83570096D02*
X140715514Y-83617715D01*
X140715514Y-83617715D02*
X140905990Y-83665334D01*
X140905990Y-83665334D02*
X141048847Y-83665334D01*
X141048847Y-83665334D02*
X141239323Y-83617715D01*
X141239323Y-83617715D02*
X141334561Y-83570096D01*
X141334561Y-83570096D02*
X141429800Y-83474858D01*
X141429800Y-83474858D02*
X141477419Y-83332001D01*
X141477419Y-83332001D02*
X141477419Y-83236763D01*
X141477419Y-83236763D02*
X141429800Y-83093906D01*
X141429800Y-83093906D02*
X141382180Y-83046287D01*
X141382180Y-83046287D02*
X141048847Y-83046287D01*
X141048847Y-83046287D02*
X141048847Y-83236763D01*
X141477419Y-82617715D02*
X140477419Y-82617715D01*
X140477419Y-82617715D02*
X141477419Y-82046287D01*
X141477419Y-82046287D02*
X140477419Y-82046287D01*
X141477419Y-81570096D02*
X140477419Y-81570096D01*
X140477419Y-81570096D02*
X140477419Y-81332001D01*
X140477419Y-81332001D02*
X140525038Y-81189144D01*
X140525038Y-81189144D02*
X140620276Y-81093906D01*
X140620276Y-81093906D02*
X140715514Y-81046287D01*
X140715514Y-81046287D02*
X140905990Y-80998668D01*
X140905990Y-80998668D02*
X141048847Y-80998668D01*
X141048847Y-80998668D02*
X141239323Y-81046287D01*
X141239323Y-81046287D02*
X141334561Y-81093906D01*
X141334561Y-81093906D02*
X141429800Y-81189144D01*
X141429800Y-81189144D02*
X141477419Y-81332001D01*
X141477419Y-81332001D02*
X141477419Y-81570096D01*
X105548712Y-105434819D02*
X105215379Y-104958628D01*
X104977284Y-105434819D02*
X104977284Y-104434819D01*
X104977284Y-104434819D02*
X105358236Y-104434819D01*
X105358236Y-104434819D02*
X105453474Y-104482438D01*
X105453474Y-104482438D02*
X105501093Y-104530057D01*
X105501093Y-104530057D02*
X105548712Y-104625295D01*
X105548712Y-104625295D02*
X105548712Y-104768152D01*
X105548712Y-104768152D02*
X105501093Y-104863390D01*
X105501093Y-104863390D02*
X105453474Y-104911009D01*
X105453474Y-104911009D02*
X105358236Y-104958628D01*
X105358236Y-104958628D02*
X104977284Y-104958628D01*
X105977284Y-104911009D02*
X106310617Y-104911009D01*
X106453474Y-105434819D02*
X105977284Y-105434819D01*
X105977284Y-105434819D02*
X105977284Y-104434819D01*
X105977284Y-104434819D02*
X106453474Y-104434819D01*
X106882046Y-105434819D02*
X106882046Y-104434819D01*
X106882046Y-104434819D02*
X107120141Y-104434819D01*
X107120141Y-104434819D02*
X107262998Y-104482438D01*
X107262998Y-104482438D02*
X107358236Y-104577676D01*
X107358236Y-104577676D02*
X107405855Y-104672914D01*
X107405855Y-104672914D02*
X107453474Y-104863390D01*
X107453474Y-104863390D02*
X107453474Y-105006247D01*
X107453474Y-105006247D02*
X107405855Y-105196723D01*
X107405855Y-105196723D02*
X107358236Y-105291961D01*
X107358236Y-105291961D02*
X107262998Y-105387200D01*
X107262998Y-105387200D02*
X107120141Y-105434819D01*
X107120141Y-105434819D02*
X106882046Y-105434819D01*
X100433865Y-75643800D02*
X100576722Y-75691419D01*
X100576722Y-75691419D02*
X100814817Y-75691419D01*
X100814817Y-75691419D02*
X100910055Y-75643800D01*
X100910055Y-75643800D02*
X100957674Y-75596180D01*
X100957674Y-75596180D02*
X101005293Y-75500942D01*
X101005293Y-75500942D02*
X101005293Y-75405704D01*
X101005293Y-75405704D02*
X100957674Y-75310466D01*
X100957674Y-75310466D02*
X100910055Y-75262847D01*
X100910055Y-75262847D02*
X100814817Y-75215228D01*
X100814817Y-75215228D02*
X100624341Y-75167609D01*
X100624341Y-75167609D02*
X100529103Y-75119990D01*
X100529103Y-75119990D02*
X100481484Y-75072371D01*
X100481484Y-75072371D02*
X100433865Y-74977133D01*
X100433865Y-74977133D02*
X100433865Y-74881895D01*
X100433865Y-74881895D02*
X100481484Y-74786657D01*
X100481484Y-74786657D02*
X100529103Y-74739038D01*
X100529103Y-74739038D02*
X100624341Y-74691419D01*
X100624341Y-74691419D02*
X100862436Y-74691419D01*
X100862436Y-74691419D02*
X101005293Y-74739038D01*
X102005293Y-75596180D02*
X101957674Y-75643800D01*
X101957674Y-75643800D02*
X101814817Y-75691419D01*
X101814817Y-75691419D02*
X101719579Y-75691419D01*
X101719579Y-75691419D02*
X101576722Y-75643800D01*
X101576722Y-75643800D02*
X101481484Y-75548561D01*
X101481484Y-75548561D02*
X101433865Y-75453323D01*
X101433865Y-75453323D02*
X101386246Y-75262847D01*
X101386246Y-75262847D02*
X101386246Y-75119990D01*
X101386246Y-75119990D02*
X101433865Y-74929514D01*
X101433865Y-74929514D02*
X101481484Y-74834276D01*
X101481484Y-74834276D02*
X101576722Y-74739038D01*
X101576722Y-74739038D02*
X101719579Y-74691419D01*
X101719579Y-74691419D02*
X101814817Y-74691419D01*
X101814817Y-74691419D02*
X101957674Y-74739038D01*
X101957674Y-74739038D02*
X102005293Y-74786657D01*
X102910055Y-75691419D02*
X102433865Y-75691419D01*
X102433865Y-75691419D02*
X102433865Y-74691419D01*
X102240255Y-104482438D02*
X102145017Y-104434819D01*
X102145017Y-104434819D02*
X102002160Y-104434819D01*
X102002160Y-104434819D02*
X101859303Y-104482438D01*
X101859303Y-104482438D02*
X101764065Y-104577676D01*
X101764065Y-104577676D02*
X101716446Y-104672914D01*
X101716446Y-104672914D02*
X101668827Y-104863390D01*
X101668827Y-104863390D02*
X101668827Y-105006247D01*
X101668827Y-105006247D02*
X101716446Y-105196723D01*
X101716446Y-105196723D02*
X101764065Y-105291961D01*
X101764065Y-105291961D02*
X101859303Y-105387200D01*
X101859303Y-105387200D02*
X102002160Y-105434819D01*
X102002160Y-105434819D02*
X102097398Y-105434819D01*
X102097398Y-105434819D02*
X102240255Y-105387200D01*
X102240255Y-105387200D02*
X102287874Y-105339580D01*
X102287874Y-105339580D02*
X102287874Y-105006247D01*
X102287874Y-105006247D02*
X102097398Y-105006247D01*
X102716446Y-105434819D02*
X102716446Y-104434819D01*
X102716446Y-104434819D02*
X103287874Y-105434819D01*
X103287874Y-105434819D02*
X103287874Y-104434819D01*
X103764065Y-105434819D02*
X103764065Y-104434819D01*
X103764065Y-104434819D02*
X104002160Y-104434819D01*
X104002160Y-104434819D02*
X104145017Y-104482438D01*
X104145017Y-104482438D02*
X104240255Y-104577676D01*
X104240255Y-104577676D02*
X104287874Y-104672914D01*
X104287874Y-104672914D02*
X104335493Y-104863390D01*
X104335493Y-104863390D02*
X104335493Y-105006247D01*
X104335493Y-105006247D02*
X104287874Y-105196723D01*
X104287874Y-105196723D02*
X104240255Y-105291961D01*
X104240255Y-105291961D02*
X104145017Y-105387200D01*
X104145017Y-105387200D02*
X104002160Y-105434819D01*
X104002160Y-105434819D02*
X103764065Y-105434819D01*
X104701065Y-75643800D02*
X104843922Y-75691419D01*
X104843922Y-75691419D02*
X105082017Y-75691419D01*
X105082017Y-75691419D02*
X105177255Y-75643800D01*
X105177255Y-75643800D02*
X105224874Y-75596180D01*
X105224874Y-75596180D02*
X105272493Y-75500942D01*
X105272493Y-75500942D02*
X105272493Y-75405704D01*
X105272493Y-75405704D02*
X105224874Y-75310466D01*
X105224874Y-75310466D02*
X105177255Y-75262847D01*
X105177255Y-75262847D02*
X105082017Y-75215228D01*
X105082017Y-75215228D02*
X104891541Y-75167609D01*
X104891541Y-75167609D02*
X104796303Y-75119990D01*
X104796303Y-75119990D02*
X104748684Y-75072371D01*
X104748684Y-75072371D02*
X104701065Y-74977133D01*
X104701065Y-74977133D02*
X104701065Y-74881895D01*
X104701065Y-74881895D02*
X104748684Y-74786657D01*
X104748684Y-74786657D02*
X104796303Y-74739038D01*
X104796303Y-74739038D02*
X104891541Y-74691419D01*
X104891541Y-74691419D02*
X105129636Y-74691419D01*
X105129636Y-74691419D02*
X105272493Y-74739038D01*
X105701065Y-75691419D02*
X105701065Y-74691419D01*
X105701065Y-74691419D02*
X105939160Y-74691419D01*
X105939160Y-74691419D02*
X106082017Y-74739038D01*
X106082017Y-74739038D02*
X106177255Y-74834276D01*
X106177255Y-74834276D02*
X106224874Y-74929514D01*
X106224874Y-74929514D02*
X106272493Y-75119990D01*
X106272493Y-75119990D02*
X106272493Y-75262847D01*
X106272493Y-75262847D02*
X106224874Y-75453323D01*
X106224874Y-75453323D02*
X106177255Y-75548561D01*
X106177255Y-75548561D02*
X106082017Y-75643800D01*
X106082017Y-75643800D02*
X105939160Y-75691419D01*
X105939160Y-75691419D02*
X105701065Y-75691419D01*
X106653446Y-75405704D02*
X107129636Y-75405704D01*
X106558208Y-75691419D02*
X106891541Y-74691419D01*
X106891541Y-74691419D02*
X107224874Y-75691419D01*
X139161027Y-78872419D02*
X139494360Y-79872419D01*
X139494360Y-79872419D02*
X139827693Y-78872419D01*
X140732455Y-79777180D02*
X140684836Y-79824800D01*
X140684836Y-79824800D02*
X140541979Y-79872419D01*
X140541979Y-79872419D02*
X140446741Y-79872419D01*
X140446741Y-79872419D02*
X140303884Y-79824800D01*
X140303884Y-79824800D02*
X140208646Y-79729561D01*
X140208646Y-79729561D02*
X140161027Y-79634323D01*
X140161027Y-79634323D02*
X140113408Y-79443847D01*
X140113408Y-79443847D02*
X140113408Y-79300990D01*
X140113408Y-79300990D02*
X140161027Y-79110514D01*
X140161027Y-79110514D02*
X140208646Y-79015276D01*
X140208646Y-79015276D02*
X140303884Y-78920038D01*
X140303884Y-78920038D02*
X140446741Y-78872419D01*
X140446741Y-78872419D02*
X140541979Y-78872419D01*
X140541979Y-78872419D02*
X140684836Y-78920038D01*
X140684836Y-78920038D02*
X140732455Y-78967657D01*
X141732455Y-79777180D02*
X141684836Y-79824800D01*
X141684836Y-79824800D02*
X141541979Y-79872419D01*
X141541979Y-79872419D02*
X141446741Y-79872419D01*
X141446741Y-79872419D02*
X141303884Y-79824800D01*
X141303884Y-79824800D02*
X141208646Y-79729561D01*
X141208646Y-79729561D02*
X141161027Y-79634323D01*
X141161027Y-79634323D02*
X141113408Y-79443847D01*
X141113408Y-79443847D02*
X141113408Y-79300990D01*
X141113408Y-79300990D02*
X141161027Y-79110514D01*
X141161027Y-79110514D02*
X141208646Y-79015276D01*
X141208646Y-79015276D02*
X141303884Y-78920038D01*
X141303884Y-78920038D02*
X141446741Y-78872419D01*
X141446741Y-78872419D02*
X141541979Y-78872419D01*
X141541979Y-78872419D02*
X141684836Y-78920038D01*
X141684836Y-78920038D02*
X141732455Y-78967657D01*
X143296819Y-89627972D02*
X144296819Y-89294639D01*
X144296819Y-89294639D02*
X143296819Y-88961306D01*
X144296819Y-88627972D02*
X143296819Y-88627972D01*
X143296819Y-88627972D02*
X143296819Y-88389877D01*
X143296819Y-88389877D02*
X143344438Y-88247020D01*
X143344438Y-88247020D02*
X143439676Y-88151782D01*
X143439676Y-88151782D02*
X143534914Y-88104163D01*
X143534914Y-88104163D02*
X143725390Y-88056544D01*
X143725390Y-88056544D02*
X143868247Y-88056544D01*
X143868247Y-88056544D02*
X144058723Y-88104163D01*
X144058723Y-88104163D02*
X144153961Y-88151782D01*
X144153961Y-88151782D02*
X144249200Y-88247020D01*
X144249200Y-88247020D02*
X144296819Y-88389877D01*
X144296819Y-88389877D02*
X144296819Y-88627972D01*
X144296819Y-87627972D02*
X143296819Y-87627972D01*
X143296819Y-87627972D02*
X143296819Y-87389877D01*
X143296819Y-87389877D02*
X143344438Y-87247020D01*
X143344438Y-87247020D02*
X143439676Y-87151782D01*
X143439676Y-87151782D02*
X143534914Y-87104163D01*
X143534914Y-87104163D02*
X143725390Y-87056544D01*
X143725390Y-87056544D02*
X143868247Y-87056544D01*
X143868247Y-87056544D02*
X144058723Y-87104163D01*
X144058723Y-87104163D02*
X144153961Y-87151782D01*
X144153961Y-87151782D02*
X144249200Y-87247020D01*
X144249200Y-87247020D02*
X144296819Y-87389877D01*
X144296819Y-87389877D02*
X144296819Y-87627972D01*
X97169893Y-104482438D02*
X97074655Y-104434819D01*
X97074655Y-104434819D02*
X96931798Y-104434819D01*
X96931798Y-104434819D02*
X96788941Y-104482438D01*
X96788941Y-104482438D02*
X96693703Y-104577676D01*
X96693703Y-104577676D02*
X96646084Y-104672914D01*
X96646084Y-104672914D02*
X96598465Y-104863390D01*
X96598465Y-104863390D02*
X96598465Y-105006247D01*
X96598465Y-105006247D02*
X96646084Y-105196723D01*
X96646084Y-105196723D02*
X96693703Y-105291961D01*
X96693703Y-105291961D02*
X96788941Y-105387200D01*
X96788941Y-105387200D02*
X96931798Y-105434819D01*
X96931798Y-105434819D02*
X97027036Y-105434819D01*
X97027036Y-105434819D02*
X97169893Y-105387200D01*
X97169893Y-105387200D02*
X97217512Y-105339580D01*
X97217512Y-105339580D02*
X97217512Y-105006247D01*
X97217512Y-105006247D02*
X97027036Y-105006247D01*
X98217512Y-105434819D02*
X97884179Y-104958628D01*
X97646084Y-105434819D02*
X97646084Y-104434819D01*
X97646084Y-104434819D02*
X98027036Y-104434819D01*
X98027036Y-104434819D02*
X98122274Y-104482438D01*
X98122274Y-104482438D02*
X98169893Y-104530057D01*
X98169893Y-104530057D02*
X98217512Y-104625295D01*
X98217512Y-104625295D02*
X98217512Y-104768152D01*
X98217512Y-104768152D02*
X98169893Y-104863390D01*
X98169893Y-104863390D02*
X98122274Y-104911009D01*
X98122274Y-104911009D02*
X98027036Y-104958628D01*
X98027036Y-104958628D02*
X97646084Y-104958628D01*
X98646084Y-104911009D02*
X98979417Y-104911009D01*
X99122274Y-105434819D02*
X98646084Y-105434819D01*
X98646084Y-105434819D02*
X98646084Y-104434819D01*
X98646084Y-104434819D02*
X99122274Y-104434819D01*
X99550846Y-104911009D02*
X99884179Y-104911009D01*
X100027036Y-105434819D02*
X99550846Y-105434819D01*
X99550846Y-105434819D02*
X99550846Y-104434819D01*
X99550846Y-104434819D02*
X100027036Y-104434819D01*
X100455608Y-105434819D02*
X100455608Y-104434819D01*
X100455608Y-104434819D02*
X101027036Y-105434819D01*
X101027036Y-105434819D02*
X101027036Y-104434819D01*
D11*
X129369642Y-81904819D02*
X129036309Y-81428628D01*
X128798214Y-81904819D02*
X128798214Y-80904819D01*
X128798214Y-80904819D02*
X129179166Y-80904819D01*
X129179166Y-80904819D02*
X129274404Y-80952438D01*
X129274404Y-80952438D02*
X129322023Y-81000057D01*
X129322023Y-81000057D02*
X129369642Y-81095295D01*
X129369642Y-81095295D02*
X129369642Y-81238152D01*
X129369642Y-81238152D02*
X129322023Y-81333390D01*
X129322023Y-81333390D02*
X129274404Y-81381009D01*
X129274404Y-81381009D02*
X129179166Y-81428628D01*
X129179166Y-81428628D02*
X128798214Y-81428628D01*
X130322023Y-81904819D02*
X129750595Y-81904819D01*
X130036309Y-81904819D02*
X130036309Y-80904819D01*
X130036309Y-80904819D02*
X129941071Y-81047676D01*
X129941071Y-81047676D02*
X129845833Y-81142914D01*
X129845833Y-81142914D02*
X129750595Y-81190533D01*
X130702976Y-81000057D02*
X130750595Y-80952438D01*
X130750595Y-80952438D02*
X130845833Y-80904819D01*
X130845833Y-80904819D02*
X131083928Y-80904819D01*
X131083928Y-80904819D02*
X131179166Y-80952438D01*
X131179166Y-80952438D02*
X131226785Y-81000057D01*
X131226785Y-81000057D02*
X131274404Y-81095295D01*
X131274404Y-81095295D02*
X131274404Y-81190533D01*
X131274404Y-81190533D02*
X131226785Y-81333390D01*
X131226785Y-81333390D02*
X130655357Y-81904819D01*
X130655357Y-81904819D02*
X131274404Y-81904819D01*
X139954819Y-74642857D02*
X139478628Y-74976190D01*
X139954819Y-75214285D02*
X138954819Y-75214285D01*
X138954819Y-75214285D02*
X138954819Y-74833333D01*
X138954819Y-74833333D02*
X139002438Y-74738095D01*
X139002438Y-74738095D02*
X139050057Y-74690476D01*
X139050057Y-74690476D02*
X139145295Y-74642857D01*
X139145295Y-74642857D02*
X139288152Y-74642857D01*
X139288152Y-74642857D02*
X139383390Y-74690476D01*
X139383390Y-74690476D02*
X139431009Y-74738095D01*
X139431009Y-74738095D02*
X139478628Y-74833333D01*
X139478628Y-74833333D02*
X139478628Y-75214285D01*
X139954819Y-73690476D02*
X139954819Y-74261904D01*
X139954819Y-73976190D02*
X138954819Y-73976190D01*
X138954819Y-73976190D02*
X139097676Y-74071428D01*
X139097676Y-74071428D02*
X139192914Y-74166666D01*
X139192914Y-74166666D02*
X139240533Y-74261904D01*
X138954819Y-73357142D02*
X138954819Y-72738095D01*
X138954819Y-72738095D02*
X139335771Y-73071428D01*
X139335771Y-73071428D02*
X139335771Y-72928571D01*
X139335771Y-72928571D02*
X139383390Y-72833333D01*
X139383390Y-72833333D02*
X139431009Y-72785714D01*
X139431009Y-72785714D02*
X139526247Y-72738095D01*
X139526247Y-72738095D02*
X139764342Y-72738095D01*
X139764342Y-72738095D02*
X139859580Y-72785714D01*
X139859580Y-72785714D02*
X139907200Y-72833333D01*
X139907200Y-72833333D02*
X139954819Y-72928571D01*
X139954819Y-72928571D02*
X139954819Y-73214285D01*
X139954819Y-73214285D02*
X139907200Y-73309523D01*
X139907200Y-73309523D02*
X139859580Y-73357142D01*
X140666666Y-74454819D02*
X140666666Y-75169104D01*
X140666666Y-75169104D02*
X140619047Y-75311961D01*
X140619047Y-75311961D02*
X140523809Y-75407200D01*
X140523809Y-75407200D02*
X140380952Y-75454819D01*
X140380952Y-75454819D02*
X140285714Y-75454819D01*
X141619047Y-74454819D02*
X141142857Y-74454819D01*
X141142857Y-74454819D02*
X141095238Y-74931009D01*
X141095238Y-74931009D02*
X141142857Y-74883390D01*
X141142857Y-74883390D02*
X141238095Y-74835771D01*
X141238095Y-74835771D02*
X141476190Y-74835771D01*
X141476190Y-74835771D02*
X141571428Y-74883390D01*
X141571428Y-74883390D02*
X141619047Y-74931009D01*
X141619047Y-74931009D02*
X141666666Y-75026247D01*
X141666666Y-75026247D02*
X141666666Y-75264342D01*
X141666666Y-75264342D02*
X141619047Y-75359580D01*
X141619047Y-75359580D02*
X141571428Y-75407200D01*
X141571428Y-75407200D02*
X141476190Y-75454819D01*
X141476190Y-75454819D02*
X141238095Y-75454819D01*
X141238095Y-75454819D02*
X141142857Y-75407200D01*
X141142857Y-75407200D02*
X141095238Y-75359580D01*
X140666666Y-70454819D02*
X140666666Y-71169104D01*
X140666666Y-71169104D02*
X140619047Y-71311961D01*
X140619047Y-71311961D02*
X140523809Y-71407200D01*
X140523809Y-71407200D02*
X140380952Y-71454819D01*
X140380952Y-71454819D02*
X140285714Y-71454819D01*
X141571428Y-70788152D02*
X141571428Y-71454819D01*
X141333333Y-70407200D02*
X141095238Y-71121485D01*
X141095238Y-71121485D02*
X141714285Y-71121485D01*
X88352519Y-78646257D02*
X87876328Y-78979590D01*
X88352519Y-79217685D02*
X87352519Y-79217685D01*
X87352519Y-79217685D02*
X87352519Y-78836733D01*
X87352519Y-78836733D02*
X87400138Y-78741495D01*
X87400138Y-78741495D02*
X87447757Y-78693876D01*
X87447757Y-78693876D02*
X87542995Y-78646257D01*
X87542995Y-78646257D02*
X87685852Y-78646257D01*
X87685852Y-78646257D02*
X87781090Y-78693876D01*
X87781090Y-78693876D02*
X87828709Y-78741495D01*
X87828709Y-78741495D02*
X87876328Y-78836733D01*
X87876328Y-78836733D02*
X87876328Y-79217685D01*
X88352519Y-77693876D02*
X88352519Y-78265304D01*
X88352519Y-77979590D02*
X87352519Y-77979590D01*
X87352519Y-77979590D02*
X87495376Y-78074828D01*
X87495376Y-78074828D02*
X87590614Y-78170066D01*
X87590614Y-78170066D02*
X87638233Y-78265304D01*
X88352519Y-76741495D02*
X88352519Y-77312923D01*
X88352519Y-77027209D02*
X87352519Y-77027209D01*
X87352519Y-77027209D02*
X87495376Y-77122447D01*
X87495376Y-77122447D02*
X87590614Y-77217685D01*
X87590614Y-77217685D02*
X87638233Y-77312923D01*
X93330733Y-108461980D02*
X93283114Y-108509600D01*
X93283114Y-108509600D02*
X93140257Y-108557219D01*
X93140257Y-108557219D02*
X93045019Y-108557219D01*
X93045019Y-108557219D02*
X92902162Y-108509600D01*
X92902162Y-108509600D02*
X92806924Y-108414361D01*
X92806924Y-108414361D02*
X92759305Y-108319123D01*
X92759305Y-108319123D02*
X92711686Y-108128647D01*
X92711686Y-108128647D02*
X92711686Y-107985790D01*
X92711686Y-107985790D02*
X92759305Y-107795314D01*
X92759305Y-107795314D02*
X92806924Y-107700076D01*
X92806924Y-107700076D02*
X92902162Y-107604838D01*
X92902162Y-107604838D02*
X93045019Y-107557219D01*
X93045019Y-107557219D02*
X93140257Y-107557219D01*
X93140257Y-107557219D02*
X93283114Y-107604838D01*
X93283114Y-107604838D02*
X93330733Y-107652457D01*
X93711686Y-107652457D02*
X93759305Y-107604838D01*
X93759305Y-107604838D02*
X93854543Y-107557219D01*
X93854543Y-107557219D02*
X94092638Y-107557219D01*
X94092638Y-107557219D02*
X94187876Y-107604838D01*
X94187876Y-107604838D02*
X94235495Y-107652457D01*
X94235495Y-107652457D02*
X94283114Y-107747695D01*
X94283114Y-107747695D02*
X94283114Y-107842933D01*
X94283114Y-107842933D02*
X94235495Y-107985790D01*
X94235495Y-107985790D02*
X93664067Y-108557219D01*
X93664067Y-108557219D02*
X94283114Y-108557219D01*
X137341861Y-91103857D02*
X137246623Y-91056238D01*
X137246623Y-91056238D02*
X137151385Y-90961000D01*
X137151385Y-90961000D02*
X137008528Y-90818142D01*
X137008528Y-90818142D02*
X136913290Y-90770523D01*
X136913290Y-90770523D02*
X136818052Y-90770523D01*
X136865671Y-91008619D02*
X136770433Y-90961000D01*
X136770433Y-90961000D02*
X136675195Y-90865761D01*
X136675195Y-90865761D02*
X136627576Y-90675285D01*
X136627576Y-90675285D02*
X136627576Y-90341952D01*
X136627576Y-90341952D02*
X136675195Y-90151476D01*
X136675195Y-90151476D02*
X136770433Y-90056238D01*
X136770433Y-90056238D02*
X136865671Y-90008619D01*
X136865671Y-90008619D02*
X137056147Y-90008619D01*
X137056147Y-90008619D02*
X137151385Y-90056238D01*
X137151385Y-90056238D02*
X137246623Y-90151476D01*
X137246623Y-90151476D02*
X137294242Y-90341952D01*
X137294242Y-90341952D02*
X137294242Y-90675285D01*
X137294242Y-90675285D02*
X137246623Y-90865761D01*
X137246623Y-90865761D02*
X137151385Y-90961000D01*
X137151385Y-90961000D02*
X137056147Y-91008619D01*
X137056147Y-91008619D02*
X136865671Y-91008619D01*
X137675195Y-90103857D02*
X137722814Y-90056238D01*
X137722814Y-90056238D02*
X137818052Y-90008619D01*
X137818052Y-90008619D02*
X138056147Y-90008619D01*
X138056147Y-90008619D02*
X138151385Y-90056238D01*
X138151385Y-90056238D02*
X138199004Y-90103857D01*
X138199004Y-90103857D02*
X138246623Y-90199095D01*
X138246623Y-90199095D02*
X138246623Y-90294333D01*
X138246623Y-90294333D02*
X138199004Y-90437190D01*
X138199004Y-90437190D02*
X137627576Y-91008619D01*
X137627576Y-91008619D02*
X138246623Y-91008619D01*
X81439980Y-100903066D02*
X81487600Y-100950685D01*
X81487600Y-100950685D02*
X81535219Y-101093542D01*
X81535219Y-101093542D02*
X81535219Y-101188780D01*
X81535219Y-101188780D02*
X81487600Y-101331637D01*
X81487600Y-101331637D02*
X81392361Y-101426875D01*
X81392361Y-101426875D02*
X81297123Y-101474494D01*
X81297123Y-101474494D02*
X81106647Y-101522113D01*
X81106647Y-101522113D02*
X80963790Y-101522113D01*
X80963790Y-101522113D02*
X80773314Y-101474494D01*
X80773314Y-101474494D02*
X80678076Y-101426875D01*
X80678076Y-101426875D02*
X80582838Y-101331637D01*
X80582838Y-101331637D02*
X80535219Y-101188780D01*
X80535219Y-101188780D02*
X80535219Y-101093542D01*
X80535219Y-101093542D02*
X80582838Y-100950685D01*
X80582838Y-100950685D02*
X80630457Y-100903066D01*
X81535219Y-99950685D02*
X81535219Y-100522113D01*
X81535219Y-100236399D02*
X80535219Y-100236399D01*
X80535219Y-100236399D02*
X80678076Y-100331637D01*
X80678076Y-100331637D02*
X80773314Y-100426875D01*
X80773314Y-100426875D02*
X80820933Y-100522113D01*
X96073933Y-100631419D02*
X95740600Y-100155228D01*
X95502505Y-100631419D02*
X95502505Y-99631419D01*
X95502505Y-99631419D02*
X95883457Y-99631419D01*
X95883457Y-99631419D02*
X95978695Y-99679038D01*
X95978695Y-99679038D02*
X96026314Y-99726657D01*
X96026314Y-99726657D02*
X96073933Y-99821895D01*
X96073933Y-99821895D02*
X96073933Y-99964752D01*
X96073933Y-99964752D02*
X96026314Y-100059990D01*
X96026314Y-100059990D02*
X95978695Y-100107609D01*
X95978695Y-100107609D02*
X95883457Y-100155228D01*
X95883457Y-100155228D02*
X95502505Y-100155228D01*
X97026314Y-100631419D02*
X96454886Y-100631419D01*
X96740600Y-100631419D02*
X96740600Y-99631419D01*
X96740600Y-99631419D02*
X96645362Y-99774276D01*
X96645362Y-99774276D02*
X96550124Y-99869514D01*
X96550124Y-99869514D02*
X96454886Y-99917133D01*
X103236733Y-100283180D02*
X103189114Y-100330800D01*
X103189114Y-100330800D02*
X103046257Y-100378419D01*
X103046257Y-100378419D02*
X102951019Y-100378419D01*
X102951019Y-100378419D02*
X102808162Y-100330800D01*
X102808162Y-100330800D02*
X102712924Y-100235561D01*
X102712924Y-100235561D02*
X102665305Y-100140323D01*
X102665305Y-100140323D02*
X102617686Y-99949847D01*
X102617686Y-99949847D02*
X102617686Y-99806990D01*
X102617686Y-99806990D02*
X102665305Y-99616514D01*
X102665305Y-99616514D02*
X102712924Y-99521276D01*
X102712924Y-99521276D02*
X102808162Y-99426038D01*
X102808162Y-99426038D02*
X102951019Y-99378419D01*
X102951019Y-99378419D02*
X103046257Y-99378419D01*
X103046257Y-99378419D02*
X103189114Y-99426038D01*
X103189114Y-99426038D02*
X103236733Y-99473657D01*
X103570067Y-99378419D02*
X104189114Y-99378419D01*
X104189114Y-99378419D02*
X103855781Y-99759371D01*
X103855781Y-99759371D02*
X103998638Y-99759371D01*
X103998638Y-99759371D02*
X104093876Y-99806990D01*
X104093876Y-99806990D02*
X104141495Y-99854609D01*
X104141495Y-99854609D02*
X104189114Y-99949847D01*
X104189114Y-99949847D02*
X104189114Y-100187942D01*
X104189114Y-100187942D02*
X104141495Y-100283180D01*
X104141495Y-100283180D02*
X104093876Y-100330800D01*
X104093876Y-100330800D02*
X103998638Y-100378419D01*
X103998638Y-100378419D02*
X103712924Y-100378419D01*
X103712924Y-100378419D02*
X103617686Y-100330800D01*
X103617686Y-100330800D02*
X103570067Y-100283180D01*
X119913495Y-103213819D02*
X119913495Y-104023342D01*
X119913495Y-104023342D02*
X119961114Y-104118580D01*
X119961114Y-104118580D02*
X120008733Y-104166200D01*
X120008733Y-104166200D02*
X120103971Y-104213819D01*
X120103971Y-104213819D02*
X120294447Y-104213819D01*
X120294447Y-104213819D02*
X120389685Y-104166200D01*
X120389685Y-104166200D02*
X120437304Y-104118580D01*
X120437304Y-104118580D02*
X120484923Y-104023342D01*
X120484923Y-104023342D02*
X120484923Y-103213819D01*
X121484923Y-104213819D02*
X120913495Y-104213819D01*
X121199209Y-104213819D02*
X121199209Y-103213819D01*
X121199209Y-103213819D02*
X121103971Y-103356676D01*
X121103971Y-103356676D02*
X121008733Y-103451914D01*
X121008733Y-103451914D02*
X120913495Y-103499533D01*
X135964057Y-84103838D02*
X135916438Y-84199076D01*
X135916438Y-84199076D02*
X135821200Y-84294314D01*
X135821200Y-84294314D02*
X135678342Y-84437171D01*
X135678342Y-84437171D02*
X135630723Y-84532409D01*
X135630723Y-84532409D02*
X135630723Y-84627647D01*
X135868819Y-84580028D02*
X135821200Y-84675266D01*
X135821200Y-84675266D02*
X135725961Y-84770504D01*
X135725961Y-84770504D02*
X135535485Y-84818123D01*
X135535485Y-84818123D02*
X135202152Y-84818123D01*
X135202152Y-84818123D02*
X135011676Y-84770504D01*
X135011676Y-84770504D02*
X134916438Y-84675266D01*
X134916438Y-84675266D02*
X134868819Y-84580028D01*
X134868819Y-84580028D02*
X134868819Y-84389552D01*
X134868819Y-84389552D02*
X134916438Y-84294314D01*
X134916438Y-84294314D02*
X135011676Y-84199076D01*
X135011676Y-84199076D02*
X135202152Y-84151457D01*
X135202152Y-84151457D02*
X135535485Y-84151457D01*
X135535485Y-84151457D02*
X135725961Y-84199076D01*
X135725961Y-84199076D02*
X135821200Y-84294314D01*
X135821200Y-84294314D02*
X135868819Y-84389552D01*
X135868819Y-84389552D02*
X135868819Y-84580028D01*
X135868819Y-83199076D02*
X135868819Y-83770504D01*
X135868819Y-83484790D02*
X134868819Y-83484790D01*
X134868819Y-83484790D02*
X135011676Y-83580028D01*
X135011676Y-83580028D02*
X135106914Y-83675266D01*
X135106914Y-83675266D02*
X135154533Y-83770504D01*
X84885419Y-78170066D02*
X84409228Y-78503399D01*
X84885419Y-78741494D02*
X83885419Y-78741494D01*
X83885419Y-78741494D02*
X83885419Y-78360542D01*
X83885419Y-78360542D02*
X83933038Y-78265304D01*
X83933038Y-78265304D02*
X83980657Y-78217685D01*
X83980657Y-78217685D02*
X84075895Y-78170066D01*
X84075895Y-78170066D02*
X84218752Y-78170066D01*
X84218752Y-78170066D02*
X84313990Y-78217685D01*
X84313990Y-78217685D02*
X84361609Y-78265304D01*
X84361609Y-78265304D02*
X84409228Y-78360542D01*
X84409228Y-78360542D02*
X84409228Y-78741494D01*
X84218752Y-77312923D02*
X84885419Y-77312923D01*
X83837800Y-77551018D02*
X84552085Y-77789113D01*
X84552085Y-77789113D02*
X84552085Y-77170066D01*
X119025200Y-108800732D02*
X119072819Y-108657875D01*
X119072819Y-108657875D02*
X119072819Y-108419780D01*
X119072819Y-108419780D02*
X119025200Y-108324542D01*
X119025200Y-108324542D02*
X118977580Y-108276923D01*
X118977580Y-108276923D02*
X118882342Y-108229304D01*
X118882342Y-108229304D02*
X118787104Y-108229304D01*
X118787104Y-108229304D02*
X118691866Y-108276923D01*
X118691866Y-108276923D02*
X118644247Y-108324542D01*
X118644247Y-108324542D02*
X118596628Y-108419780D01*
X118596628Y-108419780D02*
X118549009Y-108610256D01*
X118549009Y-108610256D02*
X118501390Y-108705494D01*
X118501390Y-108705494D02*
X118453771Y-108753113D01*
X118453771Y-108753113D02*
X118358533Y-108800732D01*
X118358533Y-108800732D02*
X118263295Y-108800732D01*
X118263295Y-108800732D02*
X118168057Y-108753113D01*
X118168057Y-108753113D02*
X118120438Y-108705494D01*
X118120438Y-108705494D02*
X118072819Y-108610256D01*
X118072819Y-108610256D02*
X118072819Y-108372161D01*
X118072819Y-108372161D02*
X118120438Y-108229304D01*
X118072819Y-107895970D02*
X119072819Y-107657875D01*
X119072819Y-107657875D02*
X118358533Y-107467399D01*
X118358533Y-107467399D02*
X119072819Y-107276923D01*
X119072819Y-107276923D02*
X118072819Y-107038828D01*
X119072819Y-106134066D02*
X119072819Y-106705494D01*
X119072819Y-106419780D02*
X118072819Y-106419780D01*
X118072819Y-106419780D02*
X118215676Y-106515018D01*
X118215676Y-106515018D02*
X118310914Y-106610256D01*
X118310914Y-106610256D02*
X118358533Y-106705494D01*
X81507219Y-78170066D02*
X81031028Y-78503399D01*
X81507219Y-78741494D02*
X80507219Y-78741494D01*
X80507219Y-78741494D02*
X80507219Y-78360542D01*
X80507219Y-78360542D02*
X80554838Y-78265304D01*
X80554838Y-78265304D02*
X80602457Y-78217685D01*
X80602457Y-78217685D02*
X80697695Y-78170066D01*
X80697695Y-78170066D02*
X80840552Y-78170066D01*
X80840552Y-78170066D02*
X80935790Y-78217685D01*
X80935790Y-78217685D02*
X80983409Y-78265304D01*
X80983409Y-78265304D02*
X81031028Y-78360542D01*
X81031028Y-78360542D02*
X81031028Y-78741494D01*
X80507219Y-77265304D02*
X80507219Y-77741494D01*
X80507219Y-77741494D02*
X80983409Y-77789113D01*
X80983409Y-77789113D02*
X80935790Y-77741494D01*
X80935790Y-77741494D02*
X80888171Y-77646256D01*
X80888171Y-77646256D02*
X80888171Y-77408161D01*
X80888171Y-77408161D02*
X80935790Y-77312923D01*
X80935790Y-77312923D02*
X80983409Y-77265304D01*
X80983409Y-77265304D02*
X81078647Y-77217685D01*
X81078647Y-77217685D02*
X81316742Y-77217685D01*
X81316742Y-77217685D02*
X81411980Y-77265304D01*
X81411980Y-77265304D02*
X81459600Y-77312923D01*
X81459600Y-77312923D02*
X81507219Y-77408161D01*
X81507219Y-77408161D02*
X81507219Y-77646256D01*
X81507219Y-77646256D02*
X81459600Y-77741494D01*
X81459600Y-77741494D02*
X81411980Y-77789113D01*
X106820619Y-89712704D02*
X107630142Y-89712704D01*
X107630142Y-89712704D02*
X107725380Y-89665085D01*
X107725380Y-89665085D02*
X107773000Y-89617466D01*
X107773000Y-89617466D02*
X107820619Y-89522228D01*
X107820619Y-89522228D02*
X107820619Y-89331752D01*
X107820619Y-89331752D02*
X107773000Y-89236514D01*
X107773000Y-89236514D02*
X107725380Y-89188895D01*
X107725380Y-89188895D02*
X107630142Y-89141276D01*
X107630142Y-89141276D02*
X106820619Y-89141276D01*
X106915857Y-88712704D02*
X106868238Y-88665085D01*
X106868238Y-88665085D02*
X106820619Y-88569847D01*
X106820619Y-88569847D02*
X106820619Y-88331752D01*
X106820619Y-88331752D02*
X106868238Y-88236514D01*
X106868238Y-88236514D02*
X106915857Y-88188895D01*
X106915857Y-88188895D02*
X107011095Y-88141276D01*
X107011095Y-88141276D02*
X107106333Y-88141276D01*
X107106333Y-88141276D02*
X107249190Y-88188895D01*
X107249190Y-88188895D02*
X107820619Y-88760323D01*
X107820619Y-88760323D02*
X107820619Y-88141276D01*
X135240733Y-89151619D02*
X134907400Y-88675428D01*
X134669305Y-89151619D02*
X134669305Y-88151619D01*
X134669305Y-88151619D02*
X135050257Y-88151619D01*
X135050257Y-88151619D02*
X135145495Y-88199238D01*
X135145495Y-88199238D02*
X135193114Y-88246857D01*
X135193114Y-88246857D02*
X135240733Y-88342095D01*
X135240733Y-88342095D02*
X135240733Y-88484952D01*
X135240733Y-88484952D02*
X135193114Y-88580190D01*
X135193114Y-88580190D02*
X135145495Y-88627809D01*
X135145495Y-88627809D02*
X135050257Y-88675428D01*
X135050257Y-88675428D02*
X134669305Y-88675428D01*
X135812162Y-88580190D02*
X135716924Y-88532571D01*
X135716924Y-88532571D02*
X135669305Y-88484952D01*
X135669305Y-88484952D02*
X135621686Y-88389714D01*
X135621686Y-88389714D02*
X135621686Y-88342095D01*
X135621686Y-88342095D02*
X135669305Y-88246857D01*
X135669305Y-88246857D02*
X135716924Y-88199238D01*
X135716924Y-88199238D02*
X135812162Y-88151619D01*
X135812162Y-88151619D02*
X136002638Y-88151619D01*
X136002638Y-88151619D02*
X136097876Y-88199238D01*
X136097876Y-88199238D02*
X136145495Y-88246857D01*
X136145495Y-88246857D02*
X136193114Y-88342095D01*
X136193114Y-88342095D02*
X136193114Y-88389714D01*
X136193114Y-88389714D02*
X136145495Y-88484952D01*
X136145495Y-88484952D02*
X136097876Y-88532571D01*
X136097876Y-88532571D02*
X136002638Y-88580190D01*
X136002638Y-88580190D02*
X135812162Y-88580190D01*
X135812162Y-88580190D02*
X135716924Y-88627809D01*
X135716924Y-88627809D02*
X135669305Y-88675428D01*
X135669305Y-88675428D02*
X135621686Y-88770666D01*
X135621686Y-88770666D02*
X135621686Y-88961142D01*
X135621686Y-88961142D02*
X135669305Y-89056380D01*
X135669305Y-89056380D02*
X135716924Y-89104000D01*
X135716924Y-89104000D02*
X135812162Y-89151619D01*
X135812162Y-89151619D02*
X136002638Y-89151619D01*
X136002638Y-89151619D02*
X136097876Y-89104000D01*
X136097876Y-89104000D02*
X136145495Y-89056380D01*
X136145495Y-89056380D02*
X136193114Y-88961142D01*
X136193114Y-88961142D02*
X136193114Y-88770666D01*
X136193114Y-88770666D02*
X136145495Y-88675428D01*
X136145495Y-88675428D02*
X136097876Y-88627809D01*
X136097876Y-88627809D02*
X136002638Y-88580190D01*
X98448019Y-108281694D02*
X97448019Y-108281694D01*
X97448019Y-108281694D02*
X97448019Y-108043599D01*
X97448019Y-108043599D02*
X97495638Y-107900742D01*
X97495638Y-107900742D02*
X97590876Y-107805504D01*
X97590876Y-107805504D02*
X97686114Y-107757885D01*
X97686114Y-107757885D02*
X97876590Y-107710266D01*
X97876590Y-107710266D02*
X98019447Y-107710266D01*
X98019447Y-107710266D02*
X98209923Y-107757885D01*
X98209923Y-107757885D02*
X98305161Y-107805504D01*
X98305161Y-107805504D02*
X98400400Y-107900742D01*
X98400400Y-107900742D02*
X98448019Y-108043599D01*
X98448019Y-108043599D02*
X98448019Y-108281694D01*
X98448019Y-106757885D02*
X98448019Y-107329313D01*
X98448019Y-107043599D02*
X97448019Y-107043599D01*
X97448019Y-107043599D02*
X97590876Y-107138837D01*
X97590876Y-107138837D02*
X97686114Y-107234075D01*
X97686114Y-107234075D02*
X97733733Y-107329313D01*
X130137142Y-90844219D02*
X129803809Y-90368028D01*
X129565714Y-90844219D02*
X129565714Y-89844219D01*
X129565714Y-89844219D02*
X129946666Y-89844219D01*
X129946666Y-89844219D02*
X130041904Y-89891838D01*
X130041904Y-89891838D02*
X130089523Y-89939457D01*
X130089523Y-89939457D02*
X130137142Y-90034695D01*
X130137142Y-90034695D02*
X130137142Y-90177552D01*
X130137142Y-90177552D02*
X130089523Y-90272790D01*
X130089523Y-90272790D02*
X130041904Y-90320409D01*
X130041904Y-90320409D02*
X129946666Y-90368028D01*
X129946666Y-90368028D02*
X129565714Y-90368028D01*
X131089523Y-90844219D02*
X130518095Y-90844219D01*
X130803809Y-90844219D02*
X130803809Y-89844219D01*
X130803809Y-89844219D02*
X130708571Y-89987076D01*
X130708571Y-89987076D02*
X130613333Y-90082314D01*
X130613333Y-90082314D02*
X130518095Y-90129933D01*
X131708571Y-89844219D02*
X131803809Y-89844219D01*
X131803809Y-89844219D02*
X131899047Y-89891838D01*
X131899047Y-89891838D02*
X131946666Y-89939457D01*
X131946666Y-89939457D02*
X131994285Y-90034695D01*
X131994285Y-90034695D02*
X132041904Y-90225171D01*
X132041904Y-90225171D02*
X132041904Y-90463266D01*
X132041904Y-90463266D02*
X131994285Y-90653742D01*
X131994285Y-90653742D02*
X131946666Y-90748980D01*
X131946666Y-90748980D02*
X131899047Y-90796600D01*
X131899047Y-90796600D02*
X131803809Y-90844219D01*
X131803809Y-90844219D02*
X131708571Y-90844219D01*
X131708571Y-90844219D02*
X131613333Y-90796600D01*
X131613333Y-90796600D02*
X131565714Y-90748980D01*
X131565714Y-90748980D02*
X131518095Y-90653742D01*
X131518095Y-90653742D02*
X131470476Y-90463266D01*
X131470476Y-90463266D02*
X131470476Y-90225171D01*
X131470476Y-90225171D02*
X131518095Y-90034695D01*
X131518095Y-90034695D02*
X131565714Y-89939457D01*
X131565714Y-89939457D02*
X131613333Y-89891838D01*
X131613333Y-89891838D02*
X131708571Y-89844219D01*
X85471095Y-107684219D02*
X85471095Y-108493742D01*
X85471095Y-108493742D02*
X85518714Y-108588980D01*
X85518714Y-108588980D02*
X85566333Y-108636600D01*
X85566333Y-108636600D02*
X85661571Y-108684219D01*
X85661571Y-108684219D02*
X85852047Y-108684219D01*
X85852047Y-108684219D02*
X85947285Y-108636600D01*
X85947285Y-108636600D02*
X85994904Y-108588980D01*
X85994904Y-108588980D02*
X86042523Y-108493742D01*
X86042523Y-108493742D02*
X86042523Y-107684219D01*
X86423476Y-107684219D02*
X87042523Y-107684219D01*
X87042523Y-107684219D02*
X86709190Y-108065171D01*
X86709190Y-108065171D02*
X86852047Y-108065171D01*
X86852047Y-108065171D02*
X86947285Y-108112790D01*
X86947285Y-108112790D02*
X86994904Y-108160409D01*
X86994904Y-108160409D02*
X87042523Y-108255647D01*
X87042523Y-108255647D02*
X87042523Y-108493742D01*
X87042523Y-108493742D02*
X86994904Y-108588980D01*
X86994904Y-108588980D02*
X86947285Y-108636600D01*
X86947285Y-108636600D02*
X86852047Y-108684219D01*
X86852047Y-108684219D02*
X86566333Y-108684219D01*
X86566333Y-108684219D02*
X86471095Y-108636600D01*
X86471095Y-108636600D02*
X86423476Y-108588980D01*
X99071133Y-103350219D02*
X98737800Y-102874028D01*
X98499705Y-103350219D02*
X98499705Y-102350219D01*
X98499705Y-102350219D02*
X98880657Y-102350219D01*
X98880657Y-102350219D02*
X98975895Y-102397838D01*
X98975895Y-102397838D02*
X99023514Y-102445457D01*
X99023514Y-102445457D02*
X99071133Y-102540695D01*
X99071133Y-102540695D02*
X99071133Y-102683552D01*
X99071133Y-102683552D02*
X99023514Y-102778790D01*
X99023514Y-102778790D02*
X98975895Y-102826409D01*
X98975895Y-102826409D02*
X98880657Y-102874028D01*
X98880657Y-102874028D02*
X98499705Y-102874028D01*
X99928276Y-102350219D02*
X99737800Y-102350219D01*
X99737800Y-102350219D02*
X99642562Y-102397838D01*
X99642562Y-102397838D02*
X99594943Y-102445457D01*
X99594943Y-102445457D02*
X99499705Y-102588314D01*
X99499705Y-102588314D02*
X99452086Y-102778790D01*
X99452086Y-102778790D02*
X99452086Y-103159742D01*
X99452086Y-103159742D02*
X99499705Y-103254980D01*
X99499705Y-103254980D02*
X99547324Y-103302600D01*
X99547324Y-103302600D02*
X99642562Y-103350219D01*
X99642562Y-103350219D02*
X99833038Y-103350219D01*
X99833038Y-103350219D02*
X99928276Y-103302600D01*
X99928276Y-103302600D02*
X99975895Y-103254980D01*
X99975895Y-103254980D02*
X100023514Y-103159742D01*
X100023514Y-103159742D02*
X100023514Y-102921647D01*
X100023514Y-102921647D02*
X99975895Y-102826409D01*
X99975895Y-102826409D02*
X99928276Y-102778790D01*
X99928276Y-102778790D02*
X99833038Y-102731171D01*
X99833038Y-102731171D02*
X99642562Y-102731171D01*
X99642562Y-102731171D02*
X99547324Y-102778790D01*
X99547324Y-102778790D02*
X99499705Y-102826409D01*
X99499705Y-102826409D02*
X99452086Y-102921647D01*
X134465219Y-90209666D02*
X133989028Y-90542999D01*
X134465219Y-90781094D02*
X133465219Y-90781094D01*
X133465219Y-90781094D02*
X133465219Y-90400142D01*
X133465219Y-90400142D02*
X133512838Y-90304904D01*
X133512838Y-90304904D02*
X133560457Y-90257285D01*
X133560457Y-90257285D02*
X133655695Y-90209666D01*
X133655695Y-90209666D02*
X133798552Y-90209666D01*
X133798552Y-90209666D02*
X133893790Y-90257285D01*
X133893790Y-90257285D02*
X133941409Y-90304904D01*
X133941409Y-90304904D02*
X133989028Y-90400142D01*
X133989028Y-90400142D02*
X133989028Y-90781094D01*
X134465219Y-89733475D02*
X134465219Y-89542999D01*
X134465219Y-89542999D02*
X134417600Y-89447761D01*
X134417600Y-89447761D02*
X134369980Y-89400142D01*
X134369980Y-89400142D02*
X134227123Y-89304904D01*
X134227123Y-89304904D02*
X134036647Y-89257285D01*
X134036647Y-89257285D02*
X133655695Y-89257285D01*
X133655695Y-89257285D02*
X133560457Y-89304904D01*
X133560457Y-89304904D02*
X133512838Y-89352523D01*
X133512838Y-89352523D02*
X133465219Y-89447761D01*
X133465219Y-89447761D02*
X133465219Y-89638237D01*
X133465219Y-89638237D02*
X133512838Y-89733475D01*
X133512838Y-89733475D02*
X133560457Y-89781094D01*
X133560457Y-89781094D02*
X133655695Y-89828713D01*
X133655695Y-89828713D02*
X133893790Y-89828713D01*
X133893790Y-89828713D02*
X133989028Y-89781094D01*
X133989028Y-89781094D02*
X134036647Y-89733475D01*
X134036647Y-89733475D02*
X134084266Y-89638237D01*
X134084266Y-89638237D02*
X134084266Y-89447761D01*
X134084266Y-89447761D02*
X134036647Y-89352523D01*
X134036647Y-89352523D02*
X133989028Y-89304904D01*
X133989028Y-89304904D02*
X133893790Y-89257285D01*
X115682733Y-107692619D02*
X115349400Y-107216428D01*
X115111305Y-107692619D02*
X115111305Y-106692619D01*
X115111305Y-106692619D02*
X115492257Y-106692619D01*
X115492257Y-106692619D02*
X115587495Y-106740238D01*
X115587495Y-106740238D02*
X115635114Y-106787857D01*
X115635114Y-106787857D02*
X115682733Y-106883095D01*
X115682733Y-106883095D02*
X115682733Y-107025952D01*
X115682733Y-107025952D02*
X115635114Y-107121190D01*
X115635114Y-107121190D02*
X115587495Y-107168809D01*
X115587495Y-107168809D02*
X115492257Y-107216428D01*
X115492257Y-107216428D02*
X115111305Y-107216428D01*
X116016067Y-106692619D02*
X116635114Y-106692619D01*
X116635114Y-106692619D02*
X116301781Y-107073571D01*
X116301781Y-107073571D02*
X116444638Y-107073571D01*
X116444638Y-107073571D02*
X116539876Y-107121190D01*
X116539876Y-107121190D02*
X116587495Y-107168809D01*
X116587495Y-107168809D02*
X116635114Y-107264047D01*
X116635114Y-107264047D02*
X116635114Y-107502142D01*
X116635114Y-107502142D02*
X116587495Y-107597380D01*
X116587495Y-107597380D02*
X116539876Y-107645000D01*
X116539876Y-107645000D02*
X116444638Y-107692619D01*
X116444638Y-107692619D02*
X116158924Y-107692619D01*
X116158924Y-107692619D02*
X116063686Y-107645000D01*
X116063686Y-107645000D02*
X116016067Y-107597380D01*
X90003333Y-97762219D02*
X89670000Y-97286028D01*
X89431905Y-97762219D02*
X89431905Y-96762219D01*
X89431905Y-96762219D02*
X89812857Y-96762219D01*
X89812857Y-96762219D02*
X89908095Y-96809838D01*
X89908095Y-96809838D02*
X89955714Y-96857457D01*
X89955714Y-96857457D02*
X90003333Y-96952695D01*
X90003333Y-96952695D02*
X90003333Y-97095552D01*
X90003333Y-97095552D02*
X89955714Y-97190790D01*
X89955714Y-97190790D02*
X89908095Y-97238409D01*
X89908095Y-97238409D02*
X89812857Y-97286028D01*
X89812857Y-97286028D02*
X89431905Y-97286028D01*
X90384286Y-96857457D02*
X90431905Y-96809838D01*
X90431905Y-96809838D02*
X90527143Y-96762219D01*
X90527143Y-96762219D02*
X90765238Y-96762219D01*
X90765238Y-96762219D02*
X90860476Y-96809838D01*
X90860476Y-96809838D02*
X90908095Y-96857457D01*
X90908095Y-96857457D02*
X90955714Y-96952695D01*
X90955714Y-96952695D02*
X90955714Y-97047933D01*
X90955714Y-97047933D02*
X90908095Y-97190790D01*
X90908095Y-97190790D02*
X90336667Y-97762219D01*
X90336667Y-97762219D02*
X90955714Y-97762219D01*
X113422133Y-108862019D02*
X113088800Y-108385828D01*
X112850705Y-108862019D02*
X112850705Y-107862019D01*
X112850705Y-107862019D02*
X113231657Y-107862019D01*
X113231657Y-107862019D02*
X113326895Y-107909638D01*
X113326895Y-107909638D02*
X113374514Y-107957257D01*
X113374514Y-107957257D02*
X113422133Y-108052495D01*
X113422133Y-108052495D02*
X113422133Y-108195352D01*
X113422133Y-108195352D02*
X113374514Y-108290590D01*
X113374514Y-108290590D02*
X113326895Y-108338209D01*
X113326895Y-108338209D02*
X113231657Y-108385828D01*
X113231657Y-108385828D02*
X112850705Y-108385828D01*
X113755467Y-107862019D02*
X114422133Y-107862019D01*
X114422133Y-107862019D02*
X113993562Y-108862019D01*
X105584666Y-69692619D02*
X105584666Y-70406904D01*
X105584666Y-70406904D02*
X105537047Y-70549761D01*
X105537047Y-70549761D02*
X105441809Y-70645000D01*
X105441809Y-70645000D02*
X105298952Y-70692619D01*
X105298952Y-70692619D02*
X105203714Y-70692619D01*
X106013238Y-69787857D02*
X106060857Y-69740238D01*
X106060857Y-69740238D02*
X106156095Y-69692619D01*
X106156095Y-69692619D02*
X106394190Y-69692619D01*
X106394190Y-69692619D02*
X106489428Y-69740238D01*
X106489428Y-69740238D02*
X106537047Y-69787857D01*
X106537047Y-69787857D02*
X106584666Y-69883095D01*
X106584666Y-69883095D02*
X106584666Y-69978333D01*
X106584666Y-69978333D02*
X106537047Y-70121190D01*
X106537047Y-70121190D02*
X105965619Y-70692619D01*
X105965619Y-70692619D02*
X106584666Y-70692619D01*
X101165066Y-69692619D02*
X101165066Y-70406904D01*
X101165066Y-70406904D02*
X101117447Y-70549761D01*
X101117447Y-70549761D02*
X101022209Y-70645000D01*
X101022209Y-70645000D02*
X100879352Y-70692619D01*
X100879352Y-70692619D02*
X100784114Y-70692619D01*
X101546019Y-69692619D02*
X102165066Y-69692619D01*
X102165066Y-69692619D02*
X101831733Y-70073571D01*
X101831733Y-70073571D02*
X101974590Y-70073571D01*
X101974590Y-70073571D02*
X102069828Y-70121190D01*
X102069828Y-70121190D02*
X102117447Y-70168809D01*
X102117447Y-70168809D02*
X102165066Y-70264047D01*
X102165066Y-70264047D02*
X102165066Y-70502142D01*
X102165066Y-70502142D02*
X102117447Y-70597380D01*
X102117447Y-70597380D02*
X102069828Y-70645000D01*
X102069828Y-70645000D02*
X101974590Y-70692619D01*
X101974590Y-70692619D02*
X101688876Y-70692619D01*
X101688876Y-70692619D02*
X101593638Y-70645000D01*
X101593638Y-70645000D02*
X101546019Y-70597380D01*
X141666666Y-86954819D02*
X141666666Y-87669104D01*
X141666666Y-87669104D02*
X141619047Y-87811961D01*
X141619047Y-87811961D02*
X141523809Y-87907200D01*
X141523809Y-87907200D02*
X141380952Y-87954819D01*
X141380952Y-87954819D02*
X141285714Y-87954819D01*
X142666666Y-87954819D02*
X142095238Y-87954819D01*
X142380952Y-87954819D02*
X142380952Y-86954819D01*
X142380952Y-86954819D02*
X142285714Y-87097676D01*
X142285714Y-87097676D02*
X142190476Y-87192914D01*
X142190476Y-87192914D02*
X142095238Y-87240533D01*
D12*
%TO.C,R12*%
X130327064Y-80535000D02*
X129872936Y-80535000D01*
X130327064Y-79065000D02*
X129872936Y-79065000D01*
%TO.C,R13*%
X138227064Y-72235000D02*
X137772936Y-72235000D01*
X138227064Y-70765000D02*
X137772936Y-70765000D01*
%TO.C,J5*%
X145174000Y-74620000D02*
X145174000Y-76000000D01*
X143794000Y-74620000D02*
X145174000Y-74620000D01*
X142524000Y-74620000D02*
X142414000Y-74620000D01*
X142524000Y-74620000D02*
X142524000Y-77380000D01*
X142414000Y-74620000D02*
X142414000Y-77380000D01*
X142524000Y-77380000D02*
X142414000Y-77380000D01*
%TO.C,J4*%
X145174000Y-70620000D02*
X145174000Y-72000000D01*
X143794000Y-70620000D02*
X145174000Y-70620000D01*
X142524000Y-70620000D02*
X142414000Y-70620000D01*
X142524000Y-70620000D02*
X142524000Y-73380000D01*
X142414000Y-70620000D02*
X142414000Y-73380000D01*
X142524000Y-73380000D02*
X142414000Y-73380000D01*
%TO.C,R11*%
X88812700Y-78230464D02*
X88812700Y-77776336D01*
X90282700Y-78230464D02*
X90282700Y-77776336D01*
%TO.C,C2*%
X91812800Y-105199652D02*
X91812800Y-102877148D01*
X95232800Y-105199652D02*
X95232800Y-102877148D01*
%TO.C,Q2*%
X137437100Y-91393800D02*
X136787100Y-91393800D01*
X137437100Y-91393800D02*
X138087100Y-91393800D01*
X137437100Y-94513800D02*
X136787100Y-94513800D01*
X137437100Y-94513800D02*
X138087100Y-94513800D01*
X136274600Y-91443800D02*
X136034600Y-91113800D01*
X136514600Y-91113800D01*
X136274600Y-91443800D01*
G36*
X136274600Y-91443800D02*
G01*
X136034600Y-91113800D01*
X136514600Y-91113800D01*
X136274600Y-91443800D01*
G37*
%TO.C,C1*%
X78665400Y-100475148D02*
X78665400Y-100997652D01*
X80135400Y-100475148D02*
X80135400Y-100997652D01*
%TO.C,R1*%
X96467664Y-97791600D02*
X96013536Y-97791600D01*
X96467664Y-99261600D02*
X96013536Y-99261600D01*
%TO.C,C3*%
X103243748Y-97436000D02*
X103766252Y-97436000D01*
X103243748Y-98906000D02*
X103766252Y-98906000D01*
%TO.C,U1*%
X109194600Y-69672200D02*
X109191600Y-102692200D01*
X109194600Y-102692200D02*
X124561600Y-102692200D01*
X111861600Y-72212200D02*
X109191600Y-72212200D01*
X111861600Y-74752200D02*
X109191600Y-74752200D01*
X111861600Y-102692200D02*
X109191600Y-102692200D01*
X111861600Y-102692200D02*
X111861600Y-72212200D01*
X114274600Y-67132200D02*
X114274600Y-69672200D01*
X114274600Y-69672200D02*
X109194600Y-69672200D01*
X122148600Y-67132200D02*
X114274600Y-67132200D01*
X122148600Y-67132200D02*
X122148600Y-69672200D01*
X124561600Y-72212200D02*
X127231600Y-72212200D01*
X124561600Y-100152200D02*
X124561600Y-72212200D01*
X124561600Y-100152200D02*
X124561600Y-102692200D01*
X124561600Y-102692200D02*
X127228600Y-102692200D01*
X127228600Y-69672200D02*
X122148600Y-69672200D01*
X127228600Y-102692200D02*
X127228600Y-69672200D01*
D13*
%TO.C,Q1*%
X136484000Y-84033600D02*
X137399000Y-84033600D01*
X136484000Y-85333600D02*
X136484000Y-84033600D01*
X138699000Y-84033600D02*
X139614000Y-84033600D01*
X139614000Y-84033600D02*
X139614000Y-85333600D01*
D14*
X137099000Y-86983600D02*
G75*
G02*
X136899000Y-86983600I-100000J0D01*
G01*
X136899000Y-86983600D02*
G75*
G02*
X137099000Y-86983600I100000J0D01*
G01*
D12*
%TO.C,R4*%
X85345600Y-78230464D02*
X85345600Y-77776336D01*
X86815600Y-78230464D02*
X86815600Y-77776336D01*
%TO.C,SW1*%
X119823000Y-108873600D02*
X119823000Y-107543600D01*
X121153000Y-108873600D02*
X119823000Y-108873600D01*
X122423000Y-106213600D02*
X125023000Y-106213600D01*
X122423000Y-108873600D02*
X122423000Y-106213600D01*
X122423000Y-108873600D02*
X125023000Y-108873600D01*
X125023000Y-108873600D02*
X125023000Y-106213600D01*
%TO.C,R5*%
X81967400Y-78230464D02*
X81967400Y-77776336D01*
X83437400Y-78230464D02*
X83437400Y-77776336D01*
D13*
%TO.C,U2*%
X78569400Y-82397600D02*
X85249400Y-82397600D01*
X78569400Y-95097600D02*
X78569400Y-82397600D01*
X85249400Y-95097600D02*
X78569400Y-95097600D01*
X104889400Y-95097600D02*
X105569400Y-95097600D01*
X105569400Y-82397600D02*
X104889400Y-82397600D01*
X105569400Y-82527600D02*
X105569400Y-82397600D01*
X105569400Y-95097600D02*
X105569400Y-94967600D01*
D14*
X85994400Y-96747600D02*
G75*
G02*
X85794400Y-96747600I-100000J0D01*
G01*
X85794400Y-96747600D02*
G75*
G02*
X85994400Y-96747600I100000J0D01*
G01*
D12*
%TO.C,R8*%
X138428464Y-87987200D02*
X137974336Y-87987200D01*
X138428464Y-89457200D02*
X137974336Y-89457200D01*
%TO.C,D1*%
X99127000Y-108873600D02*
X99127000Y-107543600D01*
X100457000Y-108873600D02*
X99127000Y-108873600D01*
X101727000Y-106213600D02*
X106867000Y-106213600D01*
X101727000Y-108873600D02*
X101727000Y-106213600D01*
X101727000Y-108873600D02*
X106867000Y-108873600D01*
X106867000Y-108873600D02*
X106867000Y-106213600D01*
%TO.C,R10*%
X130552936Y-91304400D02*
X131007064Y-91304400D01*
X130552936Y-92774400D02*
X131007064Y-92774400D01*
%TO.C,U3*%
X82797600Y-101070800D02*
X82797600Y-104830800D01*
X82797600Y-104830800D02*
X84057600Y-104830800D01*
X89617600Y-101070800D02*
X89617600Y-104830800D01*
X89617600Y-104830800D02*
X88357600Y-104830800D01*
X89847600Y-100030800D02*
X89517600Y-99790800D01*
X89847600Y-99550800D01*
X89847600Y-100030800D01*
G36*
X89847600Y-100030800D02*
G01*
X89517600Y-99790800D01*
X89847600Y-99550800D01*
X89847600Y-100030800D01*
G37*
%TO.C,R6*%
X101957136Y-102109600D02*
X102411264Y-102109600D01*
X101957136Y-103579600D02*
X102411264Y-103579600D01*
%TO.C,R9*%
X133245400Y-92724836D02*
X133245400Y-93178964D01*
X134715400Y-92724836D02*
X134715400Y-93178964D01*
%TO.C,R3*%
X116076464Y-104852800D02*
X115622336Y-104852800D01*
X116076464Y-106322800D02*
X115622336Y-106322800D01*
%TO.C,R2*%
X91390800Y-98575864D02*
X91390800Y-98121736D01*
X92860800Y-98575864D02*
X92860800Y-98121736D01*
%TO.C,R7*%
X110491536Y-106808600D02*
X110945664Y-106808600D01*
X110491536Y-108278600D02*
X110945664Y-108278600D01*
%TO.C,J2*%
X104588000Y-71237800D02*
X105918000Y-71237800D01*
X104588000Y-72567800D02*
X104588000Y-71237800D01*
X104588000Y-73837800D02*
X104588000Y-73897800D01*
X104588000Y-73837800D02*
X107248000Y-73837800D01*
X104588000Y-73897800D02*
X107248000Y-73897800D01*
X107248000Y-73837800D02*
X107248000Y-73897800D01*
%TO.C,J3*%
X100168400Y-71237800D02*
X101498400Y-71237800D01*
X100168400Y-72567800D02*
X100168400Y-71237800D01*
X100168400Y-73837800D02*
X100168400Y-73897800D01*
X100168400Y-73837800D02*
X102828400Y-73837800D01*
X100168400Y-73897800D02*
X102828400Y-73897800D01*
X102828400Y-73837800D02*
X102828400Y-73897800D01*
%TO.C,J1*%
X142434000Y-78527600D02*
X143764000Y-78527600D01*
X142434000Y-79857600D02*
X142434000Y-78527600D01*
X142434000Y-81127600D02*
X142434000Y-86267600D01*
X142434000Y-81127600D02*
X145094000Y-81127600D01*
X142434000Y-86267600D02*
X145094000Y-86267600D01*
X145094000Y-81127600D02*
X145094000Y-86267600D01*
%TD*%
M02*
