%TF.GenerationSoftware,KiCad,Pcbnew,8.0.7*%
%TF.CreationDate,2025-01-09T13:35:45+03:00*%
%TF.ProjectId,KeyboardSecurity,4b657962-6f61-4726-9453-656375726974,rev?*%
%TF.SameCoordinates,Original*%
%TF.FileFunction,Drillmap*%
%TF.FilePolarity,Positive*%
%FSLAX45Y45*%
G04 Gerber Fmt 4.5, Leading zero omitted, Abs format (unit mm)*
G04 Created by KiCad (PCBNEW 8.0.7) date 2025-01-09 13:35:45*
%MOMM*%
%LPD*%
G01*
G04 APERTURE LIST*
%ADD10C,0.050000*%
%ADD11C,0.200000*%
G04 APERTURE END LIST*
D10*
X9258300Y-6941820D02*
X9258300Y-7340600D01*
X12914380Y-9649460D02*
X14700000Y-9649460D01*
X9925000Y-7641820D02*
G75*
G02*
X9275000Y-7641820I-325000J0D01*
G01*
X9275000Y-7641820D02*
G75*
G02*
X9925000Y-7641820I325000J0D01*
G01*
X12914380Y-11046460D02*
X12914380Y-9649460D01*
X14700000Y-9649460D02*
X14700000Y-6941820D01*
X13825000Y-7641820D02*
G75*
G02*
X13175000Y-7641820I-325000J0D01*
G01*
X13175000Y-7641820D02*
G75*
G02*
X13825000Y-7641820I325000J0D01*
G01*
X7609810Y-11046460D02*
X12914380Y-11046460D01*
X9258300Y-7340600D02*
X7609810Y-7340600D01*
X7609810Y-7340600D02*
X7609810Y-11046460D01*
X14700000Y-6941820D02*
X9258300Y-6941820D01*
D11*
X7868087Y-11360444D02*
X7868087Y-11160444D01*
X7868087Y-11160444D02*
X7915706Y-11160444D01*
X7915706Y-11160444D02*
X7944278Y-11169968D01*
X7944278Y-11169968D02*
X7963325Y-11189015D01*
X7963325Y-11189015D02*
X7972849Y-11208063D01*
X7972849Y-11208063D02*
X7982373Y-11246158D01*
X7982373Y-11246158D02*
X7982373Y-11274729D01*
X7982373Y-11274729D02*
X7972849Y-11312825D01*
X7972849Y-11312825D02*
X7963325Y-11331872D01*
X7963325Y-11331872D02*
X7944278Y-11350920D01*
X7944278Y-11350920D02*
X7915706Y-11360444D01*
X7915706Y-11360444D02*
X7868087Y-11360444D01*
X8068087Y-11360444D02*
X8068087Y-11227110D01*
X8068087Y-11265206D02*
X8077611Y-11246158D01*
X8077611Y-11246158D02*
X8087135Y-11236634D01*
X8087135Y-11236634D02*
X8106182Y-11227110D01*
X8106182Y-11227110D02*
X8125230Y-11227110D01*
X8191897Y-11360444D02*
X8191897Y-11227110D01*
X8191897Y-11160444D02*
X8182373Y-11169968D01*
X8182373Y-11169968D02*
X8191897Y-11179491D01*
X8191897Y-11179491D02*
X8201420Y-11169968D01*
X8201420Y-11169968D02*
X8191897Y-11160444D01*
X8191897Y-11160444D02*
X8191897Y-11179491D01*
X8315706Y-11360444D02*
X8296658Y-11350920D01*
X8296658Y-11350920D02*
X8287135Y-11331872D01*
X8287135Y-11331872D02*
X8287135Y-11160444D01*
X8420468Y-11360444D02*
X8401420Y-11350920D01*
X8401420Y-11350920D02*
X8391897Y-11331872D01*
X8391897Y-11331872D02*
X8391897Y-11160444D01*
X8649040Y-11360444D02*
X8649040Y-11160444D01*
X8649040Y-11160444D02*
X8715706Y-11303301D01*
X8715706Y-11303301D02*
X8782373Y-11160444D01*
X8782373Y-11160444D02*
X8782373Y-11360444D01*
X8963325Y-11360444D02*
X8963325Y-11255682D01*
X8963325Y-11255682D02*
X8953801Y-11236634D01*
X8953801Y-11236634D02*
X8934754Y-11227110D01*
X8934754Y-11227110D02*
X8896659Y-11227110D01*
X8896659Y-11227110D02*
X8877611Y-11236634D01*
X8963325Y-11350920D02*
X8944278Y-11360444D01*
X8944278Y-11360444D02*
X8896659Y-11360444D01*
X8896659Y-11360444D02*
X8877611Y-11350920D01*
X8877611Y-11350920D02*
X8868087Y-11331872D01*
X8868087Y-11331872D02*
X8868087Y-11312825D01*
X8868087Y-11312825D02*
X8877611Y-11293777D01*
X8877611Y-11293777D02*
X8896659Y-11284253D01*
X8896659Y-11284253D02*
X8944278Y-11284253D01*
X8944278Y-11284253D02*
X8963325Y-11274729D01*
X9058563Y-11227110D02*
X9058563Y-11427110D01*
X9058563Y-11236634D02*
X9077611Y-11227110D01*
X9077611Y-11227110D02*
X9115706Y-11227110D01*
X9115706Y-11227110D02*
X9134754Y-11236634D01*
X9134754Y-11236634D02*
X9144278Y-11246158D01*
X9144278Y-11246158D02*
X9153801Y-11265206D01*
X9153801Y-11265206D02*
X9153801Y-11322348D01*
X9153801Y-11322348D02*
X9144278Y-11341396D01*
X9144278Y-11341396D02*
X9134754Y-11350920D01*
X9134754Y-11350920D02*
X9115706Y-11360444D01*
X9115706Y-11360444D02*
X9077611Y-11360444D01*
X9077611Y-11360444D02*
X9058563Y-11350920D01*
X9239516Y-11341396D02*
X9249040Y-11350920D01*
X9249040Y-11350920D02*
X9239516Y-11360444D01*
X9239516Y-11360444D02*
X9229992Y-11350920D01*
X9229992Y-11350920D02*
X9239516Y-11341396D01*
X9239516Y-11341396D02*
X9239516Y-11360444D01*
X9239516Y-11236634D02*
X9249040Y-11246158D01*
X9249040Y-11246158D02*
X9239516Y-11255682D01*
X9239516Y-11255682D02*
X9229992Y-11246158D01*
X9229992Y-11246158D02*
X9239516Y-11236634D01*
X9239516Y-11236634D02*
X9239516Y-11255682D01*
M02*
