%TF.GenerationSoftware,KiCad,Pcbnew,9.0.1*%
%TF.CreationDate,2025-05-26T15:55:47+03:00*%
%TF.ProjectId,KeyboardSecurity,4b657962-6f61-4726-9453-656375726974,rev?*%
%TF.SameCoordinates,Original*%
%TF.FileFunction,Soldermask,Top*%
%TF.FilePolarity,Negative*%
%FSLAX46Y46*%
G04 Gerber Fmt 4.6, Leading zero omitted, Abs format (unit mm)*
G04 Created by KiCad (PCBNEW 9.0.1) date 2025-05-26 15:55:47*
%MOMM*%
%LPD*%
G01*
G04 APERTURE LIST*
G04 Aperture macros list*
%AMRoundRect*
0 Rectangle with rounded corners*
0 $1 Rounding radius*
0 $2 $3 $4 $5 $6 $7 $8 $9 X,Y pos of 4 corners*
0 Add a 4 corners polygon primitive as box body*
4,1,4,$2,$3,$4,$5,$6,$7,$8,$9,$2,$3,0*
0 Add four circle primitives for the rounded corners*
1,1,$1+$1,$2,$3*
1,1,$1+$1,$4,$5*
1,1,$1+$1,$6,$7*
1,1,$1+$1,$8,$9*
0 Add four rect primitives between the rounded corners*
20,1,$1+$1,$2,$3,$4,$5,0*
20,1,$1+$1,$4,$5,$6,$7,0*
20,1,$1+$1,$6,$7,$8,$9,0*
20,1,$1+$1,$8,$9,$2,$3,0*%
G04 Aperture macros list end*
%ADD10RoundRect,0.250000X0.262500X0.450000X-0.262500X0.450000X-0.262500X-0.450000X0.262500X-0.450000X0*%
%ADD11R,1.700000X1.700000*%
%ADD12RoundRect,0.250000X0.450000X-0.262500X0.450000X0.262500X-0.450000X0.262500X-0.450000X-0.262500X0*%
%ADD13RoundRect,0.249999X1.450001X-0.450001X1.450001X0.450001X-1.450001X0.450001X-1.450001X-0.450001X0*%
%ADD14RoundRect,0.150000X-0.587500X-0.150000X0.587500X-0.150000X0.587500X0.150000X-0.587500X0.150000X0*%
%ADD15RoundRect,0.250000X-0.475000X0.250000X-0.475000X-0.250000X0.475000X-0.250000X0.475000X0.250000X0*%
%ADD16RoundRect,0.250000X-0.250000X-0.475000X0.250000X-0.475000X0.250000X0.475000X-0.250000X0.475000X0*%
%ADD17R,1.600000X1.600000*%
%ADD18O,1.600000X1.600000*%
%ADD19RoundRect,0.099250X0.297750X-0.652750X0.297750X0.652750X-0.297750X0.652750X-0.297750X-0.652750X0*%
%ADD20O,1.700000X1.700000*%
%ADD21RoundRect,0.102000X0.500000X-0.650000X0.500000X0.650000X-0.500000X0.650000X-0.500000X-0.650000X0*%
%ADD22RoundRect,0.102000X0.650000X-0.500000X0.650000X0.500000X-0.650000X0.500000X-0.650000X-0.500000X0*%
%ADD23RoundRect,0.250000X-0.262500X-0.450000X0.262500X-0.450000X0.262500X0.450000X-0.262500X0.450000X0*%
%ADD24RoundRect,0.375000X-0.375000X0.625000X-0.375000X-0.625000X0.375000X-0.625000X0.375000X0.625000X0*%
%ADD25RoundRect,0.500000X-1.400000X0.500000X-1.400000X-0.500000X1.400000X-0.500000X1.400000X0.500000X0*%
%ADD26RoundRect,0.250000X-0.450000X0.262500X-0.450000X-0.262500X0.450000X-0.262500X0.450000X0.262500X0*%
G04 APERTURE END LIST*
D10*
%TO.C,R12*%
X131012500Y-79800000D03*
X129187500Y-79800000D03*
%TD*%
%TO.C,R13*%
X138912500Y-71500000D03*
X137087500Y-71500000D03*
%TD*%
D11*
%TO.C,J5*%
X143794000Y-76000000D03*
%TD*%
%TO.C,J4*%
X143794000Y-72000000D03*
%TD*%
D12*
%TO.C,R11*%
X89547700Y-78915900D03*
X89547700Y-77090900D03*
%TD*%
D13*
%TO.C,C2*%
X93522800Y-106088400D03*
X93522800Y-101988400D03*
%TD*%
D14*
%TO.C,Q2*%
X136499600Y-92003800D03*
X136499600Y-93903800D03*
X138374600Y-92953800D03*
%TD*%
D15*
%TO.C,C1*%
X79400400Y-99786400D03*
X79400400Y-101686400D03*
%TD*%
D10*
%TO.C,R1*%
X97153100Y-98526600D03*
X95328100Y-98526600D03*
%TD*%
D16*
%TO.C,C3*%
X102555000Y-98171000D03*
X104455000Y-98171000D03*
%TD*%
D17*
%TO.C,U1*%
X110591600Y-73482200D03*
D18*
X110591600Y-76022200D03*
X110591600Y-78562200D03*
X110591600Y-81102200D03*
X110591600Y-83642200D03*
X110591600Y-86182200D03*
X110591600Y-88722200D03*
X110591600Y-91262200D03*
X110591600Y-93802200D03*
X110591600Y-96342200D03*
X110591600Y-98882200D03*
X110591600Y-101422200D03*
X125831600Y-101422200D03*
X125831600Y-98882200D03*
X125831600Y-96342200D03*
X125831600Y-93802200D03*
X125831600Y-91262200D03*
X125831600Y-88722200D03*
X125831600Y-86182200D03*
X125831600Y-83642200D03*
X125831600Y-81102200D03*
X125831600Y-78562200D03*
X125831600Y-76022200D03*
X125831600Y-73482200D03*
%TD*%
D19*
%TO.C,Q1*%
X137099000Y-85708600D03*
X138999000Y-85708600D03*
X138049000Y-83658600D03*
%TD*%
D12*
%TO.C,R4*%
X86080600Y-78915900D03*
X86080600Y-77090900D03*
%TD*%
D11*
%TO.C,SW1*%
X121153000Y-107543600D03*
D20*
X123693000Y-107543600D03*
%TD*%
D12*
%TO.C,R5*%
X82702400Y-78915900D03*
X82702400Y-77090900D03*
%TD*%
D21*
%TO.C,U2*%
X86069400Y-95097600D03*
X87569400Y-95097600D03*
X89069400Y-95097600D03*
X90569400Y-95097600D03*
X92069400Y-95097600D03*
X93569400Y-95097600D03*
X95069400Y-95097600D03*
X96569400Y-95097600D03*
X98069400Y-95097600D03*
X99569400Y-95097600D03*
X101069400Y-95097600D03*
X102569400Y-95097600D03*
X104069400Y-95097600D03*
D22*
X105569400Y-93997600D03*
X105569400Y-92497600D03*
X105569400Y-90997600D03*
X105569400Y-89497600D03*
X105569400Y-87997600D03*
X105569400Y-86497600D03*
X105569400Y-84997600D03*
X105569400Y-83497600D03*
D21*
X104069400Y-82397600D03*
X102569400Y-82397600D03*
X101069400Y-82397600D03*
X99569400Y-82397600D03*
X98069400Y-82397600D03*
X96569400Y-82397600D03*
X95069400Y-82397600D03*
X93569400Y-82397600D03*
X92069400Y-82397600D03*
X90569400Y-82397600D03*
X89069400Y-82397600D03*
X87569400Y-82397600D03*
X86069400Y-82397600D03*
%TD*%
D10*
%TO.C,R8*%
X139113900Y-88722200D03*
X137288900Y-88722200D03*
%TD*%
D11*
%TO.C,D1*%
X100457000Y-107543600D03*
D20*
X102997000Y-107543600D03*
X105537000Y-107543600D03*
%TD*%
D23*
%TO.C,R10*%
X129867500Y-92039400D03*
X131692500Y-92039400D03*
%TD*%
D24*
%TO.C,U3*%
X88507600Y-99770800D03*
X86207600Y-99770800D03*
D25*
X86207600Y-106070800D03*
D24*
X83907600Y-99770800D03*
%TD*%
D23*
%TO.C,R6*%
X101271700Y-102844600D03*
X103096700Y-102844600D03*
%TD*%
D26*
%TO.C,R9*%
X133980400Y-92039400D03*
X133980400Y-93864400D03*
%TD*%
D10*
%TO.C,R3*%
X116761900Y-105587800D03*
X114936900Y-105587800D03*
%TD*%
D12*
%TO.C,R2*%
X92125800Y-99261300D03*
X92125800Y-97436300D03*
%TD*%
D23*
%TO.C,R7*%
X109806100Y-107543600D03*
X111631100Y-107543600D03*
%TD*%
D11*
%TO.C,J2*%
X105918000Y-72567800D03*
%TD*%
%TO.C,J3*%
X101498400Y-72567800D03*
%TD*%
%TO.C,J1*%
X143764000Y-79857600D03*
D20*
X143764000Y-82397600D03*
X143764000Y-84937600D03*
%TD*%
M02*
