%TF.GenerationSoftware,KiCad,Pcbnew,8.0.7*%
%TF.CreationDate,2025-01-09T13:35:45+03:00*%
%TF.ProjectId,KeyboardSecurity,4b657962-6f61-4726-9453-656375726974,rev?*%
%TF.SameCoordinates,Original*%
%TF.FileFunction,Drillmap*%
%TF.FilePolarity,Positive*%
%FSLAX45Y45*%
G04 Gerber Fmt 4.5, Leading zero omitted, Abs format (unit mm)*
G04 Created by KiCad (PCBNEW 8.0.7) date 2025-01-09 13:35:45*
%MOMM*%
%LPD*%
G01*
G04 APERTURE LIST*
%ADD10C,0.050000*%
%ADD11C,0.200000*%
%ADD12C,0.100000*%
G04 APERTURE END LIST*
D10*
X9258300Y-6941820D02*
X9258300Y-7340600D01*
X12914380Y-9649460D02*
X14700000Y-9649460D01*
X9925000Y-7641820D02*
G75*
G02*
X9275000Y-7641820I-325000J0D01*
G01*
X9275000Y-7641820D02*
G75*
G02*
X9925000Y-7641820I325000J0D01*
G01*
X12914380Y-11046460D02*
X12914380Y-9649460D01*
X14700000Y-9649460D02*
X14700000Y-6941820D01*
X13825000Y-7641820D02*
G75*
G02*
X13175000Y-7641820I-325000J0D01*
G01*
X13175000Y-7641820D02*
G75*
G02*
X13825000Y-7641820I325000J0D01*
G01*
X7609810Y-11046460D02*
X12914380Y-11046460D01*
X9258300Y-7340600D02*
X7609810Y-7340600D01*
X7609810Y-7340600D02*
X7609810Y-11046460D01*
X14700000Y-6941820D02*
X9258300Y-6941820D01*
D11*
D12*
X7729460Y-9743680D02*
X7759460Y-9773680D01*
X7759460Y-9743680D02*
X7729460Y-9773680D01*
X7757400Y-8013940D02*
X7787400Y-8043940D01*
X7787400Y-8013940D02*
X7757400Y-8043940D01*
X7869160Y-10609820D02*
X7899160Y-10639820D01*
X7899160Y-10609820D02*
X7869160Y-10639820D01*
X7876780Y-7653260D02*
X7906780Y-7683260D01*
X7906780Y-7653260D02*
X7876780Y-7683260D01*
X8209520Y-9710660D02*
X8239520Y-9740660D01*
X8239520Y-9710660D02*
X8209520Y-9740660D01*
X8257780Y-7495780D02*
X8287780Y-7525780D01*
X8287780Y-7495780D02*
X8257780Y-7525780D01*
X8290800Y-10866360D02*
X8320800Y-10896360D01*
X8320800Y-10866360D02*
X8290800Y-10896360D01*
X8783560Y-8539720D02*
X8813560Y-8569720D01*
X8813560Y-8539720D02*
X8783560Y-8569720D01*
X8852140Y-9040100D02*
X8882140Y-9070100D01*
X8882140Y-9040100D02*
X8852140Y-9070100D01*
X8976600Y-10843500D02*
X9006600Y-10873500D01*
X9006600Y-10843500D02*
X8976600Y-10873500D01*
X9014700Y-10122140D02*
X9044700Y-10152140D01*
X9044700Y-10122140D02*
X9014700Y-10152140D01*
X9093440Y-7495780D02*
X9123440Y-7525780D01*
X9123440Y-7495780D02*
X9093440Y-7525780D01*
X9388080Y-7185900D02*
X9418080Y-7215900D01*
X9418080Y-7185900D02*
X9388080Y-7215900D01*
X9388080Y-8572740D02*
X9418080Y-8602740D01*
X9418080Y-8572740D02*
X9388080Y-8602740D01*
X9611600Y-10051020D02*
X9641600Y-10081020D01*
X9641600Y-10051020D02*
X9611600Y-10081020D01*
X9642080Y-10810480D02*
X9672080Y-10840480D01*
X9672080Y-10810480D02*
X9642080Y-10840480D01*
X9794480Y-7127480D02*
X9824480Y-7157480D01*
X9824480Y-7127480D02*
X9794480Y-7157480D01*
X9842740Y-8979140D02*
X9872740Y-9009140D01*
X9872740Y-8979140D02*
X9842740Y-9009140D01*
X9873220Y-10312640D02*
X9903220Y-10342640D01*
X9903220Y-10312640D02*
X9873220Y-10342640D01*
X10203420Y-8572740D02*
X10233420Y-8602740D01*
X10233420Y-8572740D02*
X10203420Y-8602740D01*
X10317720Y-7963140D02*
X10347720Y-7993140D01*
X10347720Y-7963140D02*
X10317720Y-7993140D01*
X10350740Y-10081500D02*
X10380740Y-10111500D01*
X10380740Y-10081500D02*
X10350740Y-10111500D01*
X10625060Y-9784320D02*
X10655060Y-9814320D01*
X10655060Y-9784320D02*
X10625060Y-9814320D01*
X10800320Y-10172940D02*
X10830320Y-10202940D01*
X10830320Y-10172940D02*
X10800320Y-10202940D01*
X10810480Y-10868900D02*
X10840480Y-10898900D01*
X10840480Y-10868900D02*
X10810480Y-10898900D01*
X10912080Y-10536160D02*
X10942080Y-10566160D01*
X10942080Y-10536160D02*
X10912080Y-10566160D01*
X11300700Y-10040860D02*
X11330700Y-10070860D01*
X11330700Y-10040860D02*
X11300700Y-10070860D01*
X11351500Y-9215360D02*
X11381500Y-9245360D01*
X11381500Y-9215360D02*
X11351500Y-9245360D01*
X11374360Y-7025880D02*
X11404360Y-7055880D01*
X11404360Y-7025880D02*
X11374360Y-7055880D01*
X11374360Y-8572740D02*
X11404360Y-8602740D01*
X11404360Y-8572740D02*
X11374360Y-8602740D01*
X11719800Y-10846040D02*
X11749800Y-10876040D01*
X11749800Y-10846040D02*
X11719800Y-10876040D01*
X11869660Y-7963140D02*
X11899660Y-7993140D01*
X11899660Y-7963140D02*
X11869660Y-7993140D01*
X11938240Y-9860520D02*
X11968240Y-9890520D01*
X11968240Y-9860520D02*
X11938240Y-9890520D01*
X11999200Y-9220440D02*
X12029200Y-9250440D01*
X12029200Y-9220440D02*
X11999200Y-9250440D01*
X12128740Y-8582900D02*
X12158740Y-8612900D01*
X12158740Y-8582900D02*
X12128740Y-8612900D01*
X12169380Y-7556740D02*
X12199380Y-7586740D01*
X12199380Y-7556740D02*
X12169380Y-7586740D01*
X12298920Y-10360900D02*
X12328920Y-10390900D01*
X12328920Y-10360900D02*
X12298920Y-10390900D01*
X12377660Y-7066520D02*
X12407660Y-7096520D01*
X12407660Y-7066520D02*
X12377660Y-7096520D01*
X12702780Y-10790160D02*
X12732780Y-10820160D01*
X12732780Y-10790160D02*
X12702780Y-10820160D01*
X12883120Y-9492220D02*
X12913120Y-9522220D01*
X12913120Y-9492220D02*
X12883120Y-9522220D01*
X12905980Y-7251940D02*
X12935980Y-7281940D01*
X12935980Y-7251940D02*
X12905980Y-7281940D01*
X12913600Y-8453360D02*
X12943600Y-8483360D01*
X12943600Y-8453360D02*
X12913600Y-8483360D01*
X13378420Y-8709900D02*
X13408420Y-8739900D01*
X13408420Y-8709900D02*
X13378420Y-8739900D01*
X14051520Y-8857220D02*
X14081520Y-8887220D01*
X14081520Y-8857220D02*
X14051520Y-8887220D01*
X14328380Y-7251940D02*
X14358380Y-7281940D01*
X14358380Y-7251940D02*
X14328380Y-7281940D01*
X14399500Y-9362680D02*
X14429500Y-9392680D01*
X14429500Y-9362680D02*
X14399500Y-9392680D01*
X7962500Y-9781540D02*
G75*
G02*
X7912500Y-9781540I-25000J0D01*
G01*
X7912500Y-9781540D02*
G75*
G02*
X7962500Y-9781540I25000J0D01*
G01*
X8633060Y-7518400D02*
G75*
G02*
X8583060Y-7518400I-25000J0D01*
G01*
X8583060Y-7518400D02*
G75*
G02*
X8633060Y-7518400I25000J0D01*
G01*
X9882740Y-9283700D02*
G75*
G02*
X9832740Y-9283700I-25000J0D01*
G01*
X9832740Y-9283700D02*
G75*
G02*
X9882740Y-9283700I25000J0D01*
G01*
X9986880Y-9745980D02*
G75*
G02*
X9936880Y-9745980I-25000J0D01*
G01*
X9936880Y-9745980D02*
G75*
G02*
X9986880Y-9745980I25000J0D01*
G01*
X10080860Y-7683500D02*
G75*
G02*
X10030860Y-7683500I-25000J0D01*
G01*
X10030860Y-7683500D02*
G75*
G02*
X10080860Y-7683500I25000J0D01*
G01*
X10083400Y-9837420D02*
G75*
G02*
X10033400Y-9837420I-25000J0D01*
G01*
X10033400Y-9837420D02*
G75*
G02*
X10083400Y-9837420I25000J0D01*
G01*
X11345780Y-10558780D02*
G75*
G02*
X11295780Y-10558780I-25000J0D01*
G01*
X11295780Y-10558780D02*
G75*
G02*
X11345780Y-10558780I25000J0D01*
G01*
X11059160Y-7308220D02*
X11059160Y-7388220D01*
X11019160Y-7348220D02*
X11099160Y-7348220D01*
X11059160Y-7562220D02*
X11059160Y-7642220D01*
X11019160Y-7602220D02*
X11099160Y-7602220D01*
X11059160Y-7816220D02*
X11059160Y-7896220D01*
X11019160Y-7856220D02*
X11099160Y-7856220D01*
X11059160Y-8070220D02*
X11059160Y-8150220D01*
X11019160Y-8110220D02*
X11099160Y-8110220D01*
X11059160Y-8324220D02*
X11059160Y-8404220D01*
X11019160Y-8364220D02*
X11099160Y-8364220D01*
X11059160Y-8578220D02*
X11059160Y-8658220D01*
X11019160Y-8618220D02*
X11099160Y-8618220D01*
X11059160Y-8832220D02*
X11059160Y-8912220D01*
X11019160Y-8872220D02*
X11099160Y-8872220D01*
X11059160Y-9086220D02*
X11059160Y-9166220D01*
X11019160Y-9126220D02*
X11099160Y-9126220D01*
X11059160Y-9340220D02*
X11059160Y-9420220D01*
X11019160Y-9380220D02*
X11099160Y-9380220D01*
X11059160Y-9594220D02*
X11059160Y-9674220D01*
X11019160Y-9634220D02*
X11099160Y-9634220D01*
X11059160Y-9848220D02*
X11059160Y-9928220D01*
X11019160Y-9888220D02*
X11099160Y-9888220D01*
X11059160Y-10102220D02*
X11059160Y-10182220D01*
X11019160Y-10142220D02*
X11099160Y-10142220D01*
X12583160Y-7308220D02*
X12583160Y-7388220D01*
X12543160Y-7348220D02*
X12623160Y-7348220D01*
X12583160Y-7562220D02*
X12583160Y-7642220D01*
X12543160Y-7602220D02*
X12623160Y-7602220D01*
X12583160Y-7816220D02*
X12583160Y-7896220D01*
X12543160Y-7856220D02*
X12623160Y-7856220D01*
X12583160Y-8070220D02*
X12583160Y-8150220D01*
X12543160Y-8110220D02*
X12623160Y-8110220D01*
X12583160Y-8324220D02*
X12583160Y-8404220D01*
X12543160Y-8364220D02*
X12623160Y-8364220D01*
X12583160Y-8578220D02*
X12583160Y-8658220D01*
X12543160Y-8618220D02*
X12623160Y-8618220D01*
X12583160Y-8832220D02*
X12583160Y-8912220D01*
X12543160Y-8872220D02*
X12623160Y-8872220D01*
X12583160Y-9086220D02*
X12583160Y-9166220D01*
X12543160Y-9126220D02*
X12623160Y-9126220D01*
X12583160Y-9340220D02*
X12583160Y-9420220D01*
X12543160Y-9380220D02*
X12623160Y-9380220D01*
X12583160Y-9594220D02*
X12583160Y-9674220D01*
X12543160Y-9634220D02*
X12623160Y-9634220D01*
X12583160Y-9848220D02*
X12583160Y-9928220D01*
X12543160Y-9888220D02*
X12623160Y-9888220D01*
X12583160Y-10102220D02*
X12583160Y-10182220D01*
X12543160Y-10142220D02*
X12623160Y-10142220D01*
X10081056Y-10789716D02*
X10081056Y-10719004D01*
X10010344Y-10719004D01*
X10010344Y-10789716D01*
X10081056Y-10789716D01*
X10185196Y-7292136D02*
X10185196Y-7221424D01*
X10114484Y-7221424D01*
X10114484Y-7292136D01*
X10185196Y-7292136D01*
X10335056Y-10789716D02*
X10335056Y-10719004D01*
X10264344Y-10719004D01*
X10264344Y-10789716D01*
X10335056Y-10789716D01*
X10589056Y-10789716D02*
X10589056Y-10719004D01*
X10518344Y-10719004D01*
X10518344Y-10789716D01*
X10589056Y-10789716D01*
X10627156Y-7292136D02*
X10627156Y-7221424D01*
X10556444Y-7221424D01*
X10556444Y-7292136D01*
X10627156Y-7292136D01*
X12150656Y-10789716D02*
X12150656Y-10719004D01*
X12079944Y-10719004D01*
X12079944Y-10789716D01*
X12150656Y-10789716D01*
X12404656Y-10789716D02*
X12404656Y-10719004D01*
X12333944Y-10719004D01*
X12333944Y-10789716D01*
X12404656Y-10789716D01*
X14411756Y-8021116D02*
X14411756Y-7950404D01*
X14341044Y-7950404D01*
X14341044Y-8021116D01*
X14411756Y-8021116D01*
X14411756Y-8275116D02*
X14411756Y-8204404D01*
X14341044Y-8204404D01*
X14341044Y-8275116D01*
X14411756Y-8275116D01*
X14411756Y-8529116D02*
X14411756Y-8458404D01*
X14341044Y-8458404D01*
X14341044Y-8529116D01*
X14411756Y-8529116D01*
D11*
X7868087Y-11360444D02*
X7868087Y-11160444D01*
X7868087Y-11160444D02*
X7915706Y-11160444D01*
X7915706Y-11160444D02*
X7944278Y-11169968D01*
X7944278Y-11169968D02*
X7963325Y-11189015D01*
X7963325Y-11189015D02*
X7972849Y-11208063D01*
X7972849Y-11208063D02*
X7982373Y-11246158D01*
X7982373Y-11246158D02*
X7982373Y-11274729D01*
X7982373Y-11274729D02*
X7972849Y-11312825D01*
X7972849Y-11312825D02*
X7963325Y-11331872D01*
X7963325Y-11331872D02*
X7944278Y-11350920D01*
X7944278Y-11350920D02*
X7915706Y-11360444D01*
X7915706Y-11360444D02*
X7868087Y-11360444D01*
X8068087Y-11360444D02*
X8068087Y-11227110D01*
X8068087Y-11265206D02*
X8077611Y-11246158D01*
X8077611Y-11246158D02*
X8087135Y-11236634D01*
X8087135Y-11236634D02*
X8106182Y-11227110D01*
X8106182Y-11227110D02*
X8125230Y-11227110D01*
X8191897Y-11360444D02*
X8191897Y-11227110D01*
X8191897Y-11160444D02*
X8182373Y-11169968D01*
X8182373Y-11169968D02*
X8191897Y-11179491D01*
X8191897Y-11179491D02*
X8201420Y-11169968D01*
X8201420Y-11169968D02*
X8191897Y-11160444D01*
X8191897Y-11160444D02*
X8191897Y-11179491D01*
X8315706Y-11360444D02*
X8296658Y-11350920D01*
X8296658Y-11350920D02*
X8287135Y-11331872D01*
X8287135Y-11331872D02*
X8287135Y-11160444D01*
X8420468Y-11360444D02*
X8401420Y-11350920D01*
X8401420Y-11350920D02*
X8391897Y-11331872D01*
X8391897Y-11331872D02*
X8391897Y-11160444D01*
X8649040Y-11360444D02*
X8649040Y-11160444D01*
X8649040Y-11160444D02*
X8715706Y-11303301D01*
X8715706Y-11303301D02*
X8782373Y-11160444D01*
X8782373Y-11160444D02*
X8782373Y-11360444D01*
X8963325Y-11360444D02*
X8963325Y-11255682D01*
X8963325Y-11255682D02*
X8953801Y-11236634D01*
X8953801Y-11236634D02*
X8934754Y-11227110D01*
X8934754Y-11227110D02*
X8896659Y-11227110D01*
X8896659Y-11227110D02*
X8877611Y-11236634D01*
X8963325Y-11350920D02*
X8944278Y-11360444D01*
X8944278Y-11360444D02*
X8896659Y-11360444D01*
X8896659Y-11360444D02*
X8877611Y-11350920D01*
X8877611Y-11350920D02*
X8868087Y-11331872D01*
X8868087Y-11331872D02*
X8868087Y-11312825D01*
X8868087Y-11312825D02*
X8877611Y-11293777D01*
X8877611Y-11293777D02*
X8896659Y-11284253D01*
X8896659Y-11284253D02*
X8944278Y-11284253D01*
X8944278Y-11284253D02*
X8963325Y-11274729D01*
X9058563Y-11227110D02*
X9058563Y-11427110D01*
X9058563Y-11236634D02*
X9077611Y-11227110D01*
X9077611Y-11227110D02*
X9115706Y-11227110D01*
X9115706Y-11227110D02*
X9134754Y-11236634D01*
X9134754Y-11236634D02*
X9144278Y-11246158D01*
X9144278Y-11246158D02*
X9153801Y-11265206D01*
X9153801Y-11265206D02*
X9153801Y-11322348D01*
X9153801Y-11322348D02*
X9144278Y-11341396D01*
X9144278Y-11341396D02*
X9134754Y-11350920D01*
X9134754Y-11350920D02*
X9115706Y-11360444D01*
X9115706Y-11360444D02*
X9077611Y-11360444D01*
X9077611Y-11360444D02*
X9058563Y-11350920D01*
X9239516Y-11341396D02*
X9249040Y-11350920D01*
X9249040Y-11350920D02*
X9239516Y-11360444D01*
X9239516Y-11360444D02*
X9229992Y-11350920D01*
X9229992Y-11350920D02*
X9239516Y-11341396D01*
X9239516Y-11341396D02*
X9239516Y-11360444D01*
X9239516Y-11236634D02*
X9249040Y-11246158D01*
X9249040Y-11246158D02*
X9239516Y-11255682D01*
X9239516Y-11255682D02*
X9229992Y-11246158D01*
X9229992Y-11246158D02*
X9239516Y-11236634D01*
X9239516Y-11236634D02*
X9239516Y-11255682D01*
D12*
X7577310Y-11673960D02*
X7607310Y-11703960D01*
X7607310Y-11673960D02*
X7577310Y-11703960D01*
D11*
X7906182Y-11580444D02*
X7925230Y-11580444D01*
X7925230Y-11580444D02*
X7944278Y-11589968D01*
X7944278Y-11589968D02*
X7953801Y-11599491D01*
X7953801Y-11599491D02*
X7963325Y-11618539D01*
X7963325Y-11618539D02*
X7972849Y-11656634D01*
X7972849Y-11656634D02*
X7972849Y-11704253D01*
X7972849Y-11704253D02*
X7963325Y-11742348D01*
X7963325Y-11742348D02*
X7953801Y-11761396D01*
X7953801Y-11761396D02*
X7944278Y-11770920D01*
X7944278Y-11770920D02*
X7925230Y-11780444D01*
X7925230Y-11780444D02*
X7906182Y-11780444D01*
X7906182Y-11780444D02*
X7887135Y-11770920D01*
X7887135Y-11770920D02*
X7877611Y-11761396D01*
X7877611Y-11761396D02*
X7868087Y-11742348D01*
X7868087Y-11742348D02*
X7858563Y-11704253D01*
X7858563Y-11704253D02*
X7858563Y-11656634D01*
X7858563Y-11656634D02*
X7868087Y-11618539D01*
X7868087Y-11618539D02*
X7877611Y-11599491D01*
X7877611Y-11599491D02*
X7887135Y-11589968D01*
X7887135Y-11589968D02*
X7906182Y-11580444D01*
X8058563Y-11761396D02*
X8068087Y-11770920D01*
X8068087Y-11770920D02*
X8058563Y-11780444D01*
X8058563Y-11780444D02*
X8049039Y-11770920D01*
X8049039Y-11770920D02*
X8058563Y-11761396D01*
X8058563Y-11761396D02*
X8058563Y-11780444D01*
X8134754Y-11580444D02*
X8258563Y-11580444D01*
X8258563Y-11580444D02*
X8191897Y-11656634D01*
X8191897Y-11656634D02*
X8220468Y-11656634D01*
X8220468Y-11656634D02*
X8239516Y-11666158D01*
X8239516Y-11666158D02*
X8249039Y-11675682D01*
X8249039Y-11675682D02*
X8258563Y-11694729D01*
X8258563Y-11694729D02*
X8258563Y-11742348D01*
X8258563Y-11742348D02*
X8249039Y-11761396D01*
X8249039Y-11761396D02*
X8239516Y-11770920D01*
X8239516Y-11770920D02*
X8220468Y-11780444D01*
X8220468Y-11780444D02*
X8163325Y-11780444D01*
X8163325Y-11780444D02*
X8144278Y-11770920D01*
X8144278Y-11770920D02*
X8134754Y-11761396D01*
X8382373Y-11580444D02*
X8401421Y-11580444D01*
X8401421Y-11580444D02*
X8420468Y-11589968D01*
X8420468Y-11589968D02*
X8429992Y-11599491D01*
X8429992Y-11599491D02*
X8439516Y-11618539D01*
X8439516Y-11618539D02*
X8449040Y-11656634D01*
X8449040Y-11656634D02*
X8449040Y-11704253D01*
X8449040Y-11704253D02*
X8439516Y-11742348D01*
X8439516Y-11742348D02*
X8429992Y-11761396D01*
X8429992Y-11761396D02*
X8420468Y-11770920D01*
X8420468Y-11770920D02*
X8401421Y-11780444D01*
X8401421Y-11780444D02*
X8382373Y-11780444D01*
X8382373Y-11780444D02*
X8363325Y-11770920D01*
X8363325Y-11770920D02*
X8353801Y-11761396D01*
X8353801Y-11761396D02*
X8344278Y-11742348D01*
X8344278Y-11742348D02*
X8334754Y-11704253D01*
X8334754Y-11704253D02*
X8334754Y-11656634D01*
X8334754Y-11656634D02*
X8344278Y-11618539D01*
X8344278Y-11618539D02*
X8353801Y-11599491D01*
X8353801Y-11599491D02*
X8363325Y-11589968D01*
X8363325Y-11589968D02*
X8382373Y-11580444D01*
X8572849Y-11580444D02*
X8591897Y-11580444D01*
X8591897Y-11580444D02*
X8610944Y-11589968D01*
X8610944Y-11589968D02*
X8620468Y-11599491D01*
X8620468Y-11599491D02*
X8629992Y-11618539D01*
X8629992Y-11618539D02*
X8639516Y-11656634D01*
X8639516Y-11656634D02*
X8639516Y-11704253D01*
X8639516Y-11704253D02*
X8629992Y-11742348D01*
X8629992Y-11742348D02*
X8620468Y-11761396D01*
X8620468Y-11761396D02*
X8610944Y-11770920D01*
X8610944Y-11770920D02*
X8591897Y-11780444D01*
X8591897Y-11780444D02*
X8572849Y-11780444D01*
X8572849Y-11780444D02*
X8553801Y-11770920D01*
X8553801Y-11770920D02*
X8544278Y-11761396D01*
X8544278Y-11761396D02*
X8534754Y-11742348D01*
X8534754Y-11742348D02*
X8525230Y-11704253D01*
X8525230Y-11704253D02*
X8525230Y-11656634D01*
X8525230Y-11656634D02*
X8534754Y-11618539D01*
X8534754Y-11618539D02*
X8544278Y-11599491D01*
X8544278Y-11599491D02*
X8553801Y-11589968D01*
X8553801Y-11589968D02*
X8572849Y-11580444D01*
X8725230Y-11780444D02*
X8725230Y-11647110D01*
X8725230Y-11666158D02*
X8734754Y-11656634D01*
X8734754Y-11656634D02*
X8753801Y-11647110D01*
X8753801Y-11647110D02*
X8782373Y-11647110D01*
X8782373Y-11647110D02*
X8801421Y-11656634D01*
X8801421Y-11656634D02*
X8810944Y-11675682D01*
X8810944Y-11675682D02*
X8810944Y-11780444D01*
X8810944Y-11675682D02*
X8820468Y-11656634D01*
X8820468Y-11656634D02*
X8839516Y-11647110D01*
X8839516Y-11647110D02*
X8868087Y-11647110D01*
X8868087Y-11647110D02*
X8887135Y-11656634D01*
X8887135Y-11656634D02*
X8896659Y-11675682D01*
X8896659Y-11675682D02*
X8896659Y-11780444D01*
X8991897Y-11780444D02*
X8991897Y-11647110D01*
X8991897Y-11666158D02*
X9001421Y-11656634D01*
X9001421Y-11656634D02*
X9020468Y-11647110D01*
X9020468Y-11647110D02*
X9049040Y-11647110D01*
X9049040Y-11647110D02*
X9068087Y-11656634D01*
X9068087Y-11656634D02*
X9077611Y-11675682D01*
X9077611Y-11675682D02*
X9077611Y-11780444D01*
X9077611Y-11675682D02*
X9087135Y-11656634D01*
X9087135Y-11656634D02*
X9106182Y-11647110D01*
X9106182Y-11647110D02*
X9134754Y-11647110D01*
X9134754Y-11647110D02*
X9153802Y-11656634D01*
X9153802Y-11656634D02*
X9163325Y-11675682D01*
X9163325Y-11675682D02*
X9163325Y-11780444D01*
X9553802Y-11570920D02*
X9382373Y-11828063D01*
X9810944Y-11580444D02*
X9829992Y-11580444D01*
X9829992Y-11580444D02*
X9849040Y-11589968D01*
X9849040Y-11589968D02*
X9858564Y-11599491D01*
X9858564Y-11599491D02*
X9868087Y-11618539D01*
X9868087Y-11618539D02*
X9877611Y-11656634D01*
X9877611Y-11656634D02*
X9877611Y-11704253D01*
X9877611Y-11704253D02*
X9868087Y-11742348D01*
X9868087Y-11742348D02*
X9858564Y-11761396D01*
X9858564Y-11761396D02*
X9849040Y-11770920D01*
X9849040Y-11770920D02*
X9829992Y-11780444D01*
X9829992Y-11780444D02*
X9810944Y-11780444D01*
X9810944Y-11780444D02*
X9791897Y-11770920D01*
X9791897Y-11770920D02*
X9782373Y-11761396D01*
X9782373Y-11761396D02*
X9772849Y-11742348D01*
X9772849Y-11742348D02*
X9763325Y-11704253D01*
X9763325Y-11704253D02*
X9763325Y-11656634D01*
X9763325Y-11656634D02*
X9772849Y-11618539D01*
X9772849Y-11618539D02*
X9782373Y-11599491D01*
X9782373Y-11599491D02*
X9791897Y-11589968D01*
X9791897Y-11589968D02*
X9810944Y-11580444D01*
X9963325Y-11761396D02*
X9972849Y-11770920D01*
X9972849Y-11770920D02*
X9963325Y-11780444D01*
X9963325Y-11780444D02*
X9953802Y-11770920D01*
X9953802Y-11770920D02*
X9963325Y-11761396D01*
X9963325Y-11761396D02*
X9963325Y-11780444D01*
X10096659Y-11580444D02*
X10115706Y-11580444D01*
X10115706Y-11580444D02*
X10134754Y-11589968D01*
X10134754Y-11589968D02*
X10144278Y-11599491D01*
X10144278Y-11599491D02*
X10153802Y-11618539D01*
X10153802Y-11618539D02*
X10163325Y-11656634D01*
X10163325Y-11656634D02*
X10163325Y-11704253D01*
X10163325Y-11704253D02*
X10153802Y-11742348D01*
X10153802Y-11742348D02*
X10144278Y-11761396D01*
X10144278Y-11761396D02*
X10134754Y-11770920D01*
X10134754Y-11770920D02*
X10115706Y-11780444D01*
X10115706Y-11780444D02*
X10096659Y-11780444D01*
X10096659Y-11780444D02*
X10077611Y-11770920D01*
X10077611Y-11770920D02*
X10068087Y-11761396D01*
X10068087Y-11761396D02*
X10058564Y-11742348D01*
X10058564Y-11742348D02*
X10049040Y-11704253D01*
X10049040Y-11704253D02*
X10049040Y-11656634D01*
X10049040Y-11656634D02*
X10058564Y-11618539D01*
X10058564Y-11618539D02*
X10068087Y-11599491D01*
X10068087Y-11599491D02*
X10077611Y-11589968D01*
X10077611Y-11589968D02*
X10096659Y-11580444D01*
X10353802Y-11780444D02*
X10239516Y-11780444D01*
X10296659Y-11780444D02*
X10296659Y-11580444D01*
X10296659Y-11580444D02*
X10277611Y-11609015D01*
X10277611Y-11609015D02*
X10258564Y-11628063D01*
X10258564Y-11628063D02*
X10239516Y-11637587D01*
X10544278Y-11780444D02*
X10429992Y-11780444D01*
X10487135Y-11780444D02*
X10487135Y-11580444D01*
X10487135Y-11580444D02*
X10468087Y-11609015D01*
X10468087Y-11609015D02*
X10449040Y-11628063D01*
X10449040Y-11628063D02*
X10429992Y-11637587D01*
X10658564Y-11666158D02*
X10639516Y-11656634D01*
X10639516Y-11656634D02*
X10629992Y-11647110D01*
X10629992Y-11647110D02*
X10620468Y-11628063D01*
X10620468Y-11628063D02*
X10620468Y-11618539D01*
X10620468Y-11618539D02*
X10629992Y-11599491D01*
X10629992Y-11599491D02*
X10639516Y-11589968D01*
X10639516Y-11589968D02*
X10658564Y-11580444D01*
X10658564Y-11580444D02*
X10696659Y-11580444D01*
X10696659Y-11580444D02*
X10715706Y-11589968D01*
X10715706Y-11589968D02*
X10725230Y-11599491D01*
X10725230Y-11599491D02*
X10734754Y-11618539D01*
X10734754Y-11618539D02*
X10734754Y-11628063D01*
X10734754Y-11628063D02*
X10725230Y-11647110D01*
X10725230Y-11647110D02*
X10715706Y-11656634D01*
X10715706Y-11656634D02*
X10696659Y-11666158D01*
X10696659Y-11666158D02*
X10658564Y-11666158D01*
X10658564Y-11666158D02*
X10639516Y-11675682D01*
X10639516Y-11675682D02*
X10629992Y-11685206D01*
X10629992Y-11685206D02*
X10620468Y-11704253D01*
X10620468Y-11704253D02*
X10620468Y-11742348D01*
X10620468Y-11742348D02*
X10629992Y-11761396D01*
X10629992Y-11761396D02*
X10639516Y-11770920D01*
X10639516Y-11770920D02*
X10658564Y-11780444D01*
X10658564Y-11780444D02*
X10696659Y-11780444D01*
X10696659Y-11780444D02*
X10715706Y-11770920D01*
X10715706Y-11770920D02*
X10725230Y-11761396D01*
X10725230Y-11761396D02*
X10734754Y-11742348D01*
X10734754Y-11742348D02*
X10734754Y-11704253D01*
X10734754Y-11704253D02*
X10725230Y-11685206D01*
X10725230Y-11685206D02*
X10715706Y-11675682D01*
X10715706Y-11675682D02*
X10696659Y-11666158D01*
X10810945Y-11580444D02*
X10810945Y-11618539D01*
X10887135Y-11580444D02*
X10887135Y-11618539D01*
X11182373Y-11856634D02*
X11172849Y-11847110D01*
X11172849Y-11847110D02*
X11153802Y-11818539D01*
X11153802Y-11818539D02*
X11144278Y-11799491D01*
X11144278Y-11799491D02*
X11134754Y-11770920D01*
X11134754Y-11770920D02*
X11125230Y-11723301D01*
X11125230Y-11723301D02*
X11125230Y-11685206D01*
X11125230Y-11685206D02*
X11134754Y-11637587D01*
X11134754Y-11637587D02*
X11144278Y-11609015D01*
X11144278Y-11609015D02*
X11153802Y-11589968D01*
X11153802Y-11589968D02*
X11172849Y-11561396D01*
X11172849Y-11561396D02*
X11182373Y-11551872D01*
X11344278Y-11647110D02*
X11344278Y-11780444D01*
X11296659Y-11570920D02*
X11249040Y-11713777D01*
X11249040Y-11713777D02*
X11372849Y-11713777D01*
X11534754Y-11580444D02*
X11496659Y-11580444D01*
X11496659Y-11580444D02*
X11477611Y-11589968D01*
X11477611Y-11589968D02*
X11468087Y-11599491D01*
X11468087Y-11599491D02*
X11449040Y-11628063D01*
X11449040Y-11628063D02*
X11439516Y-11666158D01*
X11439516Y-11666158D02*
X11439516Y-11742348D01*
X11439516Y-11742348D02*
X11449040Y-11761396D01*
X11449040Y-11761396D02*
X11458564Y-11770920D01*
X11458564Y-11770920D02*
X11477611Y-11780444D01*
X11477611Y-11780444D02*
X11515706Y-11780444D01*
X11515706Y-11780444D02*
X11534754Y-11770920D01*
X11534754Y-11770920D02*
X11544278Y-11761396D01*
X11544278Y-11761396D02*
X11553802Y-11742348D01*
X11553802Y-11742348D02*
X11553802Y-11694729D01*
X11553802Y-11694729D02*
X11544278Y-11675682D01*
X11544278Y-11675682D02*
X11534754Y-11666158D01*
X11534754Y-11666158D02*
X11515706Y-11656634D01*
X11515706Y-11656634D02*
X11477611Y-11656634D01*
X11477611Y-11656634D02*
X11458564Y-11666158D01*
X11458564Y-11666158D02*
X11449040Y-11675682D01*
X11449040Y-11675682D02*
X11439516Y-11694729D01*
X11791897Y-11780444D02*
X11791897Y-11580444D01*
X11877611Y-11780444D02*
X11877611Y-11675682D01*
X11877611Y-11675682D02*
X11868087Y-11656634D01*
X11868087Y-11656634D02*
X11849040Y-11647110D01*
X11849040Y-11647110D02*
X11820468Y-11647110D01*
X11820468Y-11647110D02*
X11801421Y-11656634D01*
X11801421Y-11656634D02*
X11791897Y-11666158D01*
X12001421Y-11780444D02*
X11982373Y-11770920D01*
X11982373Y-11770920D02*
X11972849Y-11761396D01*
X11972849Y-11761396D02*
X11963326Y-11742348D01*
X11963326Y-11742348D02*
X11963326Y-11685206D01*
X11963326Y-11685206D02*
X11972849Y-11666158D01*
X11972849Y-11666158D02*
X11982373Y-11656634D01*
X11982373Y-11656634D02*
X12001421Y-11647110D01*
X12001421Y-11647110D02*
X12029992Y-11647110D01*
X12029992Y-11647110D02*
X12049040Y-11656634D01*
X12049040Y-11656634D02*
X12058564Y-11666158D01*
X12058564Y-11666158D02*
X12068087Y-11685206D01*
X12068087Y-11685206D02*
X12068087Y-11742348D01*
X12068087Y-11742348D02*
X12058564Y-11761396D01*
X12058564Y-11761396D02*
X12049040Y-11770920D01*
X12049040Y-11770920D02*
X12029992Y-11780444D01*
X12029992Y-11780444D02*
X12001421Y-11780444D01*
X12182373Y-11780444D02*
X12163326Y-11770920D01*
X12163326Y-11770920D02*
X12153802Y-11751872D01*
X12153802Y-11751872D02*
X12153802Y-11580444D01*
X12334754Y-11770920D02*
X12315707Y-11780444D01*
X12315707Y-11780444D02*
X12277611Y-11780444D01*
X12277611Y-11780444D02*
X12258564Y-11770920D01*
X12258564Y-11770920D02*
X12249040Y-11751872D01*
X12249040Y-11751872D02*
X12249040Y-11675682D01*
X12249040Y-11675682D02*
X12258564Y-11656634D01*
X12258564Y-11656634D02*
X12277611Y-11647110D01*
X12277611Y-11647110D02*
X12315707Y-11647110D01*
X12315707Y-11647110D02*
X12334754Y-11656634D01*
X12334754Y-11656634D02*
X12344278Y-11675682D01*
X12344278Y-11675682D02*
X12344278Y-11694729D01*
X12344278Y-11694729D02*
X12249040Y-11713777D01*
X12420468Y-11770920D02*
X12439516Y-11780444D01*
X12439516Y-11780444D02*
X12477611Y-11780444D01*
X12477611Y-11780444D02*
X12496659Y-11770920D01*
X12496659Y-11770920D02*
X12506183Y-11751872D01*
X12506183Y-11751872D02*
X12506183Y-11742348D01*
X12506183Y-11742348D02*
X12496659Y-11723301D01*
X12496659Y-11723301D02*
X12477611Y-11713777D01*
X12477611Y-11713777D02*
X12449040Y-11713777D01*
X12449040Y-11713777D02*
X12429992Y-11704253D01*
X12429992Y-11704253D02*
X12420468Y-11685206D01*
X12420468Y-11685206D02*
X12420468Y-11675682D01*
X12420468Y-11675682D02*
X12429992Y-11656634D01*
X12429992Y-11656634D02*
X12449040Y-11647110D01*
X12449040Y-11647110D02*
X12477611Y-11647110D01*
X12477611Y-11647110D02*
X12496659Y-11656634D01*
X12572849Y-11856634D02*
X12582373Y-11847110D01*
X12582373Y-11847110D02*
X12601421Y-11818539D01*
X12601421Y-11818539D02*
X12610945Y-11799491D01*
X12610945Y-11799491D02*
X12620468Y-11770920D01*
X12620468Y-11770920D02*
X12629992Y-11723301D01*
X12629992Y-11723301D02*
X12629992Y-11685206D01*
X12629992Y-11685206D02*
X12620468Y-11637587D01*
X12620468Y-11637587D02*
X12610945Y-11609015D01*
X12610945Y-11609015D02*
X12601421Y-11589968D01*
X12601421Y-11589968D02*
X12582373Y-11561396D01*
X12582373Y-11561396D02*
X12572849Y-11551872D01*
D12*
X7607310Y-11952960D02*
G75*
G02*
X7557310Y-11952960I-25000J0D01*
G01*
X7557310Y-11952960D02*
G75*
G02*
X7607310Y-11952960I25000J0D01*
G01*
D11*
X7906182Y-11844444D02*
X7925230Y-11844444D01*
X7925230Y-11844444D02*
X7944278Y-11853968D01*
X7944278Y-11853968D02*
X7953801Y-11863491D01*
X7953801Y-11863491D02*
X7963325Y-11882539D01*
X7963325Y-11882539D02*
X7972849Y-11920634D01*
X7972849Y-11920634D02*
X7972849Y-11968253D01*
X7972849Y-11968253D02*
X7963325Y-12006348D01*
X7963325Y-12006348D02*
X7953801Y-12025396D01*
X7953801Y-12025396D02*
X7944278Y-12034920D01*
X7944278Y-12034920D02*
X7925230Y-12044444D01*
X7925230Y-12044444D02*
X7906182Y-12044444D01*
X7906182Y-12044444D02*
X7887135Y-12034920D01*
X7887135Y-12034920D02*
X7877611Y-12025396D01*
X7877611Y-12025396D02*
X7868087Y-12006348D01*
X7868087Y-12006348D02*
X7858563Y-11968253D01*
X7858563Y-11968253D02*
X7858563Y-11920634D01*
X7858563Y-11920634D02*
X7868087Y-11882539D01*
X7868087Y-11882539D02*
X7877611Y-11863491D01*
X7877611Y-11863491D02*
X7887135Y-11853968D01*
X7887135Y-11853968D02*
X7906182Y-11844444D01*
X8058563Y-12025396D02*
X8068087Y-12034920D01*
X8068087Y-12034920D02*
X8058563Y-12044444D01*
X8058563Y-12044444D02*
X8049039Y-12034920D01*
X8049039Y-12034920D02*
X8058563Y-12025396D01*
X8058563Y-12025396D02*
X8058563Y-12044444D01*
X8249039Y-11844444D02*
X8153801Y-11844444D01*
X8153801Y-11844444D02*
X8144278Y-11939682D01*
X8144278Y-11939682D02*
X8153801Y-11930158D01*
X8153801Y-11930158D02*
X8172849Y-11920634D01*
X8172849Y-11920634D02*
X8220468Y-11920634D01*
X8220468Y-11920634D02*
X8239516Y-11930158D01*
X8239516Y-11930158D02*
X8249039Y-11939682D01*
X8249039Y-11939682D02*
X8258563Y-11958729D01*
X8258563Y-11958729D02*
X8258563Y-12006348D01*
X8258563Y-12006348D02*
X8249039Y-12025396D01*
X8249039Y-12025396D02*
X8239516Y-12034920D01*
X8239516Y-12034920D02*
X8220468Y-12044444D01*
X8220468Y-12044444D02*
X8172849Y-12044444D01*
X8172849Y-12044444D02*
X8153801Y-12034920D01*
X8153801Y-12034920D02*
X8144278Y-12025396D01*
X8382373Y-11844444D02*
X8401421Y-11844444D01*
X8401421Y-11844444D02*
X8420468Y-11853968D01*
X8420468Y-11853968D02*
X8429992Y-11863491D01*
X8429992Y-11863491D02*
X8439516Y-11882539D01*
X8439516Y-11882539D02*
X8449040Y-11920634D01*
X8449040Y-11920634D02*
X8449040Y-11968253D01*
X8449040Y-11968253D02*
X8439516Y-12006348D01*
X8439516Y-12006348D02*
X8429992Y-12025396D01*
X8429992Y-12025396D02*
X8420468Y-12034920D01*
X8420468Y-12034920D02*
X8401421Y-12044444D01*
X8401421Y-12044444D02*
X8382373Y-12044444D01*
X8382373Y-12044444D02*
X8363325Y-12034920D01*
X8363325Y-12034920D02*
X8353801Y-12025396D01*
X8353801Y-12025396D02*
X8344278Y-12006348D01*
X8344278Y-12006348D02*
X8334754Y-11968253D01*
X8334754Y-11968253D02*
X8334754Y-11920634D01*
X8334754Y-11920634D02*
X8344278Y-11882539D01*
X8344278Y-11882539D02*
X8353801Y-11863491D01*
X8353801Y-11863491D02*
X8363325Y-11853968D01*
X8363325Y-11853968D02*
X8382373Y-11844444D01*
X8572849Y-11844444D02*
X8591897Y-11844444D01*
X8591897Y-11844444D02*
X8610944Y-11853968D01*
X8610944Y-11853968D02*
X8620468Y-11863491D01*
X8620468Y-11863491D02*
X8629992Y-11882539D01*
X8629992Y-11882539D02*
X8639516Y-11920634D01*
X8639516Y-11920634D02*
X8639516Y-11968253D01*
X8639516Y-11968253D02*
X8629992Y-12006348D01*
X8629992Y-12006348D02*
X8620468Y-12025396D01*
X8620468Y-12025396D02*
X8610944Y-12034920D01*
X8610944Y-12034920D02*
X8591897Y-12044444D01*
X8591897Y-12044444D02*
X8572849Y-12044444D01*
X8572849Y-12044444D02*
X8553801Y-12034920D01*
X8553801Y-12034920D02*
X8544278Y-12025396D01*
X8544278Y-12025396D02*
X8534754Y-12006348D01*
X8534754Y-12006348D02*
X8525230Y-11968253D01*
X8525230Y-11968253D02*
X8525230Y-11920634D01*
X8525230Y-11920634D02*
X8534754Y-11882539D01*
X8534754Y-11882539D02*
X8544278Y-11863491D01*
X8544278Y-11863491D02*
X8553801Y-11853968D01*
X8553801Y-11853968D02*
X8572849Y-11844444D01*
X8725230Y-12044444D02*
X8725230Y-11911110D01*
X8725230Y-11930158D02*
X8734754Y-11920634D01*
X8734754Y-11920634D02*
X8753801Y-11911110D01*
X8753801Y-11911110D02*
X8782373Y-11911110D01*
X8782373Y-11911110D02*
X8801421Y-11920634D01*
X8801421Y-11920634D02*
X8810944Y-11939682D01*
X8810944Y-11939682D02*
X8810944Y-12044444D01*
X8810944Y-11939682D02*
X8820468Y-11920634D01*
X8820468Y-11920634D02*
X8839516Y-11911110D01*
X8839516Y-11911110D02*
X8868087Y-11911110D01*
X8868087Y-11911110D02*
X8887135Y-11920634D01*
X8887135Y-11920634D02*
X8896659Y-11939682D01*
X8896659Y-11939682D02*
X8896659Y-12044444D01*
X8991897Y-12044444D02*
X8991897Y-11911110D01*
X8991897Y-11930158D02*
X9001421Y-11920634D01*
X9001421Y-11920634D02*
X9020468Y-11911110D01*
X9020468Y-11911110D02*
X9049040Y-11911110D01*
X9049040Y-11911110D02*
X9068087Y-11920634D01*
X9068087Y-11920634D02*
X9077611Y-11939682D01*
X9077611Y-11939682D02*
X9077611Y-12044444D01*
X9077611Y-11939682D02*
X9087135Y-11920634D01*
X9087135Y-11920634D02*
X9106182Y-11911110D01*
X9106182Y-11911110D02*
X9134754Y-11911110D01*
X9134754Y-11911110D02*
X9153802Y-11920634D01*
X9153802Y-11920634D02*
X9163325Y-11939682D01*
X9163325Y-11939682D02*
X9163325Y-12044444D01*
X9553802Y-11834920D02*
X9382373Y-12092063D01*
X9810944Y-11844444D02*
X9829992Y-11844444D01*
X9829992Y-11844444D02*
X9849040Y-11853968D01*
X9849040Y-11853968D02*
X9858564Y-11863491D01*
X9858564Y-11863491D02*
X9868087Y-11882539D01*
X9868087Y-11882539D02*
X9877611Y-11920634D01*
X9877611Y-11920634D02*
X9877611Y-11968253D01*
X9877611Y-11968253D02*
X9868087Y-12006348D01*
X9868087Y-12006348D02*
X9858564Y-12025396D01*
X9858564Y-12025396D02*
X9849040Y-12034920D01*
X9849040Y-12034920D02*
X9829992Y-12044444D01*
X9829992Y-12044444D02*
X9810944Y-12044444D01*
X9810944Y-12044444D02*
X9791897Y-12034920D01*
X9791897Y-12034920D02*
X9782373Y-12025396D01*
X9782373Y-12025396D02*
X9772849Y-12006348D01*
X9772849Y-12006348D02*
X9763325Y-11968253D01*
X9763325Y-11968253D02*
X9763325Y-11920634D01*
X9763325Y-11920634D02*
X9772849Y-11882539D01*
X9772849Y-11882539D02*
X9782373Y-11863491D01*
X9782373Y-11863491D02*
X9791897Y-11853968D01*
X9791897Y-11853968D02*
X9810944Y-11844444D01*
X9963325Y-12025396D02*
X9972849Y-12034920D01*
X9972849Y-12034920D02*
X9963325Y-12044444D01*
X9963325Y-12044444D02*
X9953802Y-12034920D01*
X9953802Y-12034920D02*
X9963325Y-12025396D01*
X9963325Y-12025396D02*
X9963325Y-12044444D01*
X10096659Y-11844444D02*
X10115706Y-11844444D01*
X10115706Y-11844444D02*
X10134754Y-11853968D01*
X10134754Y-11853968D02*
X10144278Y-11863491D01*
X10144278Y-11863491D02*
X10153802Y-11882539D01*
X10153802Y-11882539D02*
X10163325Y-11920634D01*
X10163325Y-11920634D02*
X10163325Y-11968253D01*
X10163325Y-11968253D02*
X10153802Y-12006348D01*
X10153802Y-12006348D02*
X10144278Y-12025396D01*
X10144278Y-12025396D02*
X10134754Y-12034920D01*
X10134754Y-12034920D02*
X10115706Y-12044444D01*
X10115706Y-12044444D02*
X10096659Y-12044444D01*
X10096659Y-12044444D02*
X10077611Y-12034920D01*
X10077611Y-12034920D02*
X10068087Y-12025396D01*
X10068087Y-12025396D02*
X10058564Y-12006348D01*
X10058564Y-12006348D02*
X10049040Y-11968253D01*
X10049040Y-11968253D02*
X10049040Y-11920634D01*
X10049040Y-11920634D02*
X10058564Y-11882539D01*
X10058564Y-11882539D02*
X10068087Y-11863491D01*
X10068087Y-11863491D02*
X10077611Y-11853968D01*
X10077611Y-11853968D02*
X10096659Y-11844444D01*
X10353802Y-12044444D02*
X10239516Y-12044444D01*
X10296659Y-12044444D02*
X10296659Y-11844444D01*
X10296659Y-11844444D02*
X10277611Y-11873015D01*
X10277611Y-11873015D02*
X10258564Y-11892063D01*
X10258564Y-11892063D02*
X10239516Y-11901587D01*
X10449040Y-12044444D02*
X10487135Y-12044444D01*
X10487135Y-12044444D02*
X10506183Y-12034920D01*
X10506183Y-12034920D02*
X10515706Y-12025396D01*
X10515706Y-12025396D02*
X10534754Y-11996825D01*
X10534754Y-11996825D02*
X10544278Y-11958729D01*
X10544278Y-11958729D02*
X10544278Y-11882539D01*
X10544278Y-11882539D02*
X10534754Y-11863491D01*
X10534754Y-11863491D02*
X10525230Y-11853968D01*
X10525230Y-11853968D02*
X10506183Y-11844444D01*
X10506183Y-11844444D02*
X10468087Y-11844444D01*
X10468087Y-11844444D02*
X10449040Y-11853968D01*
X10449040Y-11853968D02*
X10439516Y-11863491D01*
X10439516Y-11863491D02*
X10429992Y-11882539D01*
X10429992Y-11882539D02*
X10429992Y-11930158D01*
X10429992Y-11930158D02*
X10439516Y-11949206D01*
X10439516Y-11949206D02*
X10449040Y-11958729D01*
X10449040Y-11958729D02*
X10468087Y-11968253D01*
X10468087Y-11968253D02*
X10506183Y-11968253D01*
X10506183Y-11968253D02*
X10525230Y-11958729D01*
X10525230Y-11958729D02*
X10534754Y-11949206D01*
X10534754Y-11949206D02*
X10544278Y-11930158D01*
X10610945Y-11844444D02*
X10744278Y-11844444D01*
X10744278Y-11844444D02*
X10658564Y-12044444D01*
X10810945Y-11844444D02*
X10810945Y-11882539D01*
X10887135Y-11844444D02*
X10887135Y-11882539D01*
X11182373Y-12120634D02*
X11172849Y-12111110D01*
X11172849Y-12111110D02*
X11153802Y-12082539D01*
X11153802Y-12082539D02*
X11144278Y-12063491D01*
X11144278Y-12063491D02*
X11134754Y-12034920D01*
X11134754Y-12034920D02*
X11125230Y-11987301D01*
X11125230Y-11987301D02*
X11125230Y-11949206D01*
X11125230Y-11949206D02*
X11134754Y-11901587D01*
X11134754Y-11901587D02*
X11144278Y-11873015D01*
X11144278Y-11873015D02*
X11153802Y-11853968D01*
X11153802Y-11853968D02*
X11172849Y-11825396D01*
X11172849Y-11825396D02*
X11182373Y-11815872D01*
X11239516Y-11844444D02*
X11372849Y-11844444D01*
X11372849Y-11844444D02*
X11287135Y-12044444D01*
X11601421Y-12044444D02*
X11601421Y-11844444D01*
X11687135Y-12044444D02*
X11687135Y-11939682D01*
X11687135Y-11939682D02*
X11677611Y-11920634D01*
X11677611Y-11920634D02*
X11658564Y-11911110D01*
X11658564Y-11911110D02*
X11629992Y-11911110D01*
X11629992Y-11911110D02*
X11610945Y-11920634D01*
X11610945Y-11920634D02*
X11601421Y-11930158D01*
X11810945Y-12044444D02*
X11791897Y-12034920D01*
X11791897Y-12034920D02*
X11782373Y-12025396D01*
X11782373Y-12025396D02*
X11772849Y-12006348D01*
X11772849Y-12006348D02*
X11772849Y-11949206D01*
X11772849Y-11949206D02*
X11782373Y-11930158D01*
X11782373Y-11930158D02*
X11791897Y-11920634D01*
X11791897Y-11920634D02*
X11810945Y-11911110D01*
X11810945Y-11911110D02*
X11839516Y-11911110D01*
X11839516Y-11911110D02*
X11858564Y-11920634D01*
X11858564Y-11920634D02*
X11868087Y-11930158D01*
X11868087Y-11930158D02*
X11877611Y-11949206D01*
X11877611Y-11949206D02*
X11877611Y-12006348D01*
X11877611Y-12006348D02*
X11868087Y-12025396D01*
X11868087Y-12025396D02*
X11858564Y-12034920D01*
X11858564Y-12034920D02*
X11839516Y-12044444D01*
X11839516Y-12044444D02*
X11810945Y-12044444D01*
X11991897Y-12044444D02*
X11972849Y-12034920D01*
X11972849Y-12034920D02*
X11963326Y-12015872D01*
X11963326Y-12015872D02*
X11963326Y-11844444D01*
X12144278Y-12034920D02*
X12125230Y-12044444D01*
X12125230Y-12044444D02*
X12087135Y-12044444D01*
X12087135Y-12044444D02*
X12068087Y-12034920D01*
X12068087Y-12034920D02*
X12058564Y-12015872D01*
X12058564Y-12015872D02*
X12058564Y-11939682D01*
X12058564Y-11939682D02*
X12068087Y-11920634D01*
X12068087Y-11920634D02*
X12087135Y-11911110D01*
X12087135Y-11911110D02*
X12125230Y-11911110D01*
X12125230Y-11911110D02*
X12144278Y-11920634D01*
X12144278Y-11920634D02*
X12153802Y-11939682D01*
X12153802Y-11939682D02*
X12153802Y-11958729D01*
X12153802Y-11958729D02*
X12058564Y-11977777D01*
X12229992Y-12034920D02*
X12249040Y-12044444D01*
X12249040Y-12044444D02*
X12287135Y-12044444D01*
X12287135Y-12044444D02*
X12306183Y-12034920D01*
X12306183Y-12034920D02*
X12315707Y-12015872D01*
X12315707Y-12015872D02*
X12315707Y-12006348D01*
X12315707Y-12006348D02*
X12306183Y-11987301D01*
X12306183Y-11987301D02*
X12287135Y-11977777D01*
X12287135Y-11977777D02*
X12258564Y-11977777D01*
X12258564Y-11977777D02*
X12239516Y-11968253D01*
X12239516Y-11968253D02*
X12229992Y-11949206D01*
X12229992Y-11949206D02*
X12229992Y-11939682D01*
X12229992Y-11939682D02*
X12239516Y-11920634D01*
X12239516Y-11920634D02*
X12258564Y-11911110D01*
X12258564Y-11911110D02*
X12287135Y-11911110D01*
X12287135Y-11911110D02*
X12306183Y-11920634D01*
X12382373Y-12120634D02*
X12391897Y-12111110D01*
X12391897Y-12111110D02*
X12410945Y-12082539D01*
X12410945Y-12082539D02*
X12420468Y-12063491D01*
X12420468Y-12063491D02*
X12429992Y-12034920D01*
X12429992Y-12034920D02*
X12439516Y-11987301D01*
X12439516Y-11987301D02*
X12439516Y-11949206D01*
X12439516Y-11949206D02*
X12429992Y-11901587D01*
X12429992Y-11901587D02*
X12420468Y-11873015D01*
X12420468Y-11873015D02*
X12410945Y-11853968D01*
X12410945Y-11853968D02*
X12391897Y-11825396D01*
X12391897Y-11825396D02*
X12382373Y-11815872D01*
D12*
X7567310Y-12176960D02*
X7567310Y-12256960D01*
X7527310Y-12216960D02*
X7607310Y-12216960D01*
D11*
X7906182Y-12108444D02*
X7925230Y-12108444D01*
X7925230Y-12108444D02*
X7944278Y-12117968D01*
X7944278Y-12117968D02*
X7953801Y-12127491D01*
X7953801Y-12127491D02*
X7963325Y-12146539D01*
X7963325Y-12146539D02*
X7972849Y-12184634D01*
X7972849Y-12184634D02*
X7972849Y-12232253D01*
X7972849Y-12232253D02*
X7963325Y-12270348D01*
X7963325Y-12270348D02*
X7953801Y-12289396D01*
X7953801Y-12289396D02*
X7944278Y-12298920D01*
X7944278Y-12298920D02*
X7925230Y-12308444D01*
X7925230Y-12308444D02*
X7906182Y-12308444D01*
X7906182Y-12308444D02*
X7887135Y-12298920D01*
X7887135Y-12298920D02*
X7877611Y-12289396D01*
X7877611Y-12289396D02*
X7868087Y-12270348D01*
X7868087Y-12270348D02*
X7858563Y-12232253D01*
X7858563Y-12232253D02*
X7858563Y-12184634D01*
X7858563Y-12184634D02*
X7868087Y-12146539D01*
X7868087Y-12146539D02*
X7877611Y-12127491D01*
X7877611Y-12127491D02*
X7887135Y-12117968D01*
X7887135Y-12117968D02*
X7906182Y-12108444D01*
X8058563Y-12289396D02*
X8068087Y-12298920D01*
X8068087Y-12298920D02*
X8058563Y-12308444D01*
X8058563Y-12308444D02*
X8049039Y-12298920D01*
X8049039Y-12298920D02*
X8058563Y-12289396D01*
X8058563Y-12289396D02*
X8058563Y-12308444D01*
X8182373Y-12194158D02*
X8163325Y-12184634D01*
X8163325Y-12184634D02*
X8153801Y-12175110D01*
X8153801Y-12175110D02*
X8144278Y-12156063D01*
X8144278Y-12156063D02*
X8144278Y-12146539D01*
X8144278Y-12146539D02*
X8153801Y-12127491D01*
X8153801Y-12127491D02*
X8163325Y-12117968D01*
X8163325Y-12117968D02*
X8182373Y-12108444D01*
X8182373Y-12108444D02*
X8220468Y-12108444D01*
X8220468Y-12108444D02*
X8239516Y-12117968D01*
X8239516Y-12117968D02*
X8249039Y-12127491D01*
X8249039Y-12127491D02*
X8258563Y-12146539D01*
X8258563Y-12146539D02*
X8258563Y-12156063D01*
X8258563Y-12156063D02*
X8249039Y-12175110D01*
X8249039Y-12175110D02*
X8239516Y-12184634D01*
X8239516Y-12184634D02*
X8220468Y-12194158D01*
X8220468Y-12194158D02*
X8182373Y-12194158D01*
X8182373Y-12194158D02*
X8163325Y-12203682D01*
X8163325Y-12203682D02*
X8153801Y-12213206D01*
X8153801Y-12213206D02*
X8144278Y-12232253D01*
X8144278Y-12232253D02*
X8144278Y-12270348D01*
X8144278Y-12270348D02*
X8153801Y-12289396D01*
X8153801Y-12289396D02*
X8163325Y-12298920D01*
X8163325Y-12298920D02*
X8182373Y-12308444D01*
X8182373Y-12308444D02*
X8220468Y-12308444D01*
X8220468Y-12308444D02*
X8239516Y-12298920D01*
X8239516Y-12298920D02*
X8249039Y-12289396D01*
X8249039Y-12289396D02*
X8258563Y-12270348D01*
X8258563Y-12270348D02*
X8258563Y-12232253D01*
X8258563Y-12232253D02*
X8249039Y-12213206D01*
X8249039Y-12213206D02*
X8239516Y-12203682D01*
X8239516Y-12203682D02*
X8220468Y-12194158D01*
X8382373Y-12108444D02*
X8401421Y-12108444D01*
X8401421Y-12108444D02*
X8420468Y-12117968D01*
X8420468Y-12117968D02*
X8429992Y-12127491D01*
X8429992Y-12127491D02*
X8439516Y-12146539D01*
X8439516Y-12146539D02*
X8449040Y-12184634D01*
X8449040Y-12184634D02*
X8449040Y-12232253D01*
X8449040Y-12232253D02*
X8439516Y-12270348D01*
X8439516Y-12270348D02*
X8429992Y-12289396D01*
X8429992Y-12289396D02*
X8420468Y-12298920D01*
X8420468Y-12298920D02*
X8401421Y-12308444D01*
X8401421Y-12308444D02*
X8382373Y-12308444D01*
X8382373Y-12308444D02*
X8363325Y-12298920D01*
X8363325Y-12298920D02*
X8353801Y-12289396D01*
X8353801Y-12289396D02*
X8344278Y-12270348D01*
X8344278Y-12270348D02*
X8334754Y-12232253D01*
X8334754Y-12232253D02*
X8334754Y-12184634D01*
X8334754Y-12184634D02*
X8344278Y-12146539D01*
X8344278Y-12146539D02*
X8353801Y-12127491D01*
X8353801Y-12127491D02*
X8363325Y-12117968D01*
X8363325Y-12117968D02*
X8382373Y-12108444D01*
X8572849Y-12108444D02*
X8591897Y-12108444D01*
X8591897Y-12108444D02*
X8610944Y-12117968D01*
X8610944Y-12117968D02*
X8620468Y-12127491D01*
X8620468Y-12127491D02*
X8629992Y-12146539D01*
X8629992Y-12146539D02*
X8639516Y-12184634D01*
X8639516Y-12184634D02*
X8639516Y-12232253D01*
X8639516Y-12232253D02*
X8629992Y-12270348D01*
X8629992Y-12270348D02*
X8620468Y-12289396D01*
X8620468Y-12289396D02*
X8610944Y-12298920D01*
X8610944Y-12298920D02*
X8591897Y-12308444D01*
X8591897Y-12308444D02*
X8572849Y-12308444D01*
X8572849Y-12308444D02*
X8553801Y-12298920D01*
X8553801Y-12298920D02*
X8544278Y-12289396D01*
X8544278Y-12289396D02*
X8534754Y-12270348D01*
X8534754Y-12270348D02*
X8525230Y-12232253D01*
X8525230Y-12232253D02*
X8525230Y-12184634D01*
X8525230Y-12184634D02*
X8534754Y-12146539D01*
X8534754Y-12146539D02*
X8544278Y-12127491D01*
X8544278Y-12127491D02*
X8553801Y-12117968D01*
X8553801Y-12117968D02*
X8572849Y-12108444D01*
X8725230Y-12308444D02*
X8725230Y-12175110D01*
X8725230Y-12194158D02*
X8734754Y-12184634D01*
X8734754Y-12184634D02*
X8753801Y-12175110D01*
X8753801Y-12175110D02*
X8782373Y-12175110D01*
X8782373Y-12175110D02*
X8801421Y-12184634D01*
X8801421Y-12184634D02*
X8810944Y-12203682D01*
X8810944Y-12203682D02*
X8810944Y-12308444D01*
X8810944Y-12203682D02*
X8820468Y-12184634D01*
X8820468Y-12184634D02*
X8839516Y-12175110D01*
X8839516Y-12175110D02*
X8868087Y-12175110D01*
X8868087Y-12175110D02*
X8887135Y-12184634D01*
X8887135Y-12184634D02*
X8896659Y-12203682D01*
X8896659Y-12203682D02*
X8896659Y-12308444D01*
X8991897Y-12308444D02*
X8991897Y-12175110D01*
X8991897Y-12194158D02*
X9001421Y-12184634D01*
X9001421Y-12184634D02*
X9020468Y-12175110D01*
X9020468Y-12175110D02*
X9049040Y-12175110D01*
X9049040Y-12175110D02*
X9068087Y-12184634D01*
X9068087Y-12184634D02*
X9077611Y-12203682D01*
X9077611Y-12203682D02*
X9077611Y-12308444D01*
X9077611Y-12203682D02*
X9087135Y-12184634D01*
X9087135Y-12184634D02*
X9106182Y-12175110D01*
X9106182Y-12175110D02*
X9134754Y-12175110D01*
X9134754Y-12175110D02*
X9153802Y-12184634D01*
X9153802Y-12184634D02*
X9163325Y-12203682D01*
X9163325Y-12203682D02*
X9163325Y-12308444D01*
X9553802Y-12098920D02*
X9382373Y-12356063D01*
X9810944Y-12108444D02*
X9829992Y-12108444D01*
X9829992Y-12108444D02*
X9849040Y-12117968D01*
X9849040Y-12117968D02*
X9858564Y-12127491D01*
X9858564Y-12127491D02*
X9868087Y-12146539D01*
X9868087Y-12146539D02*
X9877611Y-12184634D01*
X9877611Y-12184634D02*
X9877611Y-12232253D01*
X9877611Y-12232253D02*
X9868087Y-12270348D01*
X9868087Y-12270348D02*
X9858564Y-12289396D01*
X9858564Y-12289396D02*
X9849040Y-12298920D01*
X9849040Y-12298920D02*
X9829992Y-12308444D01*
X9829992Y-12308444D02*
X9810944Y-12308444D01*
X9810944Y-12308444D02*
X9791897Y-12298920D01*
X9791897Y-12298920D02*
X9782373Y-12289396D01*
X9782373Y-12289396D02*
X9772849Y-12270348D01*
X9772849Y-12270348D02*
X9763325Y-12232253D01*
X9763325Y-12232253D02*
X9763325Y-12184634D01*
X9763325Y-12184634D02*
X9772849Y-12146539D01*
X9772849Y-12146539D02*
X9782373Y-12127491D01*
X9782373Y-12127491D02*
X9791897Y-12117968D01*
X9791897Y-12117968D02*
X9810944Y-12108444D01*
X9963325Y-12289396D02*
X9972849Y-12298920D01*
X9972849Y-12298920D02*
X9963325Y-12308444D01*
X9963325Y-12308444D02*
X9953802Y-12298920D01*
X9953802Y-12298920D02*
X9963325Y-12289396D01*
X9963325Y-12289396D02*
X9963325Y-12308444D01*
X10096659Y-12108444D02*
X10115706Y-12108444D01*
X10115706Y-12108444D02*
X10134754Y-12117968D01*
X10134754Y-12117968D02*
X10144278Y-12127491D01*
X10144278Y-12127491D02*
X10153802Y-12146539D01*
X10153802Y-12146539D02*
X10163325Y-12184634D01*
X10163325Y-12184634D02*
X10163325Y-12232253D01*
X10163325Y-12232253D02*
X10153802Y-12270348D01*
X10153802Y-12270348D02*
X10144278Y-12289396D01*
X10144278Y-12289396D02*
X10134754Y-12298920D01*
X10134754Y-12298920D02*
X10115706Y-12308444D01*
X10115706Y-12308444D02*
X10096659Y-12308444D01*
X10096659Y-12308444D02*
X10077611Y-12298920D01*
X10077611Y-12298920D02*
X10068087Y-12289396D01*
X10068087Y-12289396D02*
X10058564Y-12270348D01*
X10058564Y-12270348D02*
X10049040Y-12232253D01*
X10049040Y-12232253D02*
X10049040Y-12184634D01*
X10049040Y-12184634D02*
X10058564Y-12146539D01*
X10058564Y-12146539D02*
X10068087Y-12127491D01*
X10068087Y-12127491D02*
X10077611Y-12117968D01*
X10077611Y-12117968D02*
X10096659Y-12108444D01*
X10229992Y-12108444D02*
X10353802Y-12108444D01*
X10353802Y-12108444D02*
X10287135Y-12184634D01*
X10287135Y-12184634D02*
X10315706Y-12184634D01*
X10315706Y-12184634D02*
X10334754Y-12194158D01*
X10334754Y-12194158D02*
X10344278Y-12203682D01*
X10344278Y-12203682D02*
X10353802Y-12222729D01*
X10353802Y-12222729D02*
X10353802Y-12270348D01*
X10353802Y-12270348D02*
X10344278Y-12289396D01*
X10344278Y-12289396D02*
X10334754Y-12298920D01*
X10334754Y-12298920D02*
X10315706Y-12308444D01*
X10315706Y-12308444D02*
X10258564Y-12308444D01*
X10258564Y-12308444D02*
X10239516Y-12298920D01*
X10239516Y-12298920D02*
X10229992Y-12289396D01*
X10544278Y-12308444D02*
X10429992Y-12308444D01*
X10487135Y-12308444D02*
X10487135Y-12108444D01*
X10487135Y-12108444D02*
X10468087Y-12137015D01*
X10468087Y-12137015D02*
X10449040Y-12156063D01*
X10449040Y-12156063D02*
X10429992Y-12165587D01*
X10725230Y-12108444D02*
X10629992Y-12108444D01*
X10629992Y-12108444D02*
X10620468Y-12203682D01*
X10620468Y-12203682D02*
X10629992Y-12194158D01*
X10629992Y-12194158D02*
X10649040Y-12184634D01*
X10649040Y-12184634D02*
X10696659Y-12184634D01*
X10696659Y-12184634D02*
X10715706Y-12194158D01*
X10715706Y-12194158D02*
X10725230Y-12203682D01*
X10725230Y-12203682D02*
X10734754Y-12222729D01*
X10734754Y-12222729D02*
X10734754Y-12270348D01*
X10734754Y-12270348D02*
X10725230Y-12289396D01*
X10725230Y-12289396D02*
X10715706Y-12298920D01*
X10715706Y-12298920D02*
X10696659Y-12308444D01*
X10696659Y-12308444D02*
X10649040Y-12308444D01*
X10649040Y-12308444D02*
X10629992Y-12298920D01*
X10629992Y-12298920D02*
X10620468Y-12289396D01*
X10810945Y-12108444D02*
X10810945Y-12146539D01*
X10887135Y-12108444D02*
X10887135Y-12146539D01*
X11182373Y-12384634D02*
X11172849Y-12375110D01*
X11172849Y-12375110D02*
X11153802Y-12346539D01*
X11153802Y-12346539D02*
X11144278Y-12327491D01*
X11144278Y-12327491D02*
X11134754Y-12298920D01*
X11134754Y-12298920D02*
X11125230Y-12251301D01*
X11125230Y-12251301D02*
X11125230Y-12213206D01*
X11125230Y-12213206D02*
X11134754Y-12165587D01*
X11134754Y-12165587D02*
X11144278Y-12137015D01*
X11144278Y-12137015D02*
X11153802Y-12117968D01*
X11153802Y-12117968D02*
X11172849Y-12089396D01*
X11172849Y-12089396D02*
X11182373Y-12079872D01*
X11249040Y-12127491D02*
X11258564Y-12117968D01*
X11258564Y-12117968D02*
X11277611Y-12108444D01*
X11277611Y-12108444D02*
X11325230Y-12108444D01*
X11325230Y-12108444D02*
X11344278Y-12117968D01*
X11344278Y-12117968D02*
X11353802Y-12127491D01*
X11353802Y-12127491D02*
X11363325Y-12146539D01*
X11363325Y-12146539D02*
X11363325Y-12165587D01*
X11363325Y-12165587D02*
X11353802Y-12194158D01*
X11353802Y-12194158D02*
X11239516Y-12308444D01*
X11239516Y-12308444D02*
X11363325Y-12308444D01*
X11534754Y-12175110D02*
X11534754Y-12308444D01*
X11487135Y-12098920D02*
X11439516Y-12241777D01*
X11439516Y-12241777D02*
X11563325Y-12241777D01*
X11791897Y-12308444D02*
X11791897Y-12108444D01*
X11877611Y-12308444D02*
X11877611Y-12203682D01*
X11877611Y-12203682D02*
X11868087Y-12184634D01*
X11868087Y-12184634D02*
X11849040Y-12175110D01*
X11849040Y-12175110D02*
X11820468Y-12175110D01*
X11820468Y-12175110D02*
X11801421Y-12184634D01*
X11801421Y-12184634D02*
X11791897Y-12194158D01*
X12001421Y-12308444D02*
X11982373Y-12298920D01*
X11982373Y-12298920D02*
X11972849Y-12289396D01*
X11972849Y-12289396D02*
X11963326Y-12270348D01*
X11963326Y-12270348D02*
X11963326Y-12213206D01*
X11963326Y-12213206D02*
X11972849Y-12194158D01*
X11972849Y-12194158D02*
X11982373Y-12184634D01*
X11982373Y-12184634D02*
X12001421Y-12175110D01*
X12001421Y-12175110D02*
X12029992Y-12175110D01*
X12029992Y-12175110D02*
X12049040Y-12184634D01*
X12049040Y-12184634D02*
X12058564Y-12194158D01*
X12058564Y-12194158D02*
X12068087Y-12213206D01*
X12068087Y-12213206D02*
X12068087Y-12270348D01*
X12068087Y-12270348D02*
X12058564Y-12289396D01*
X12058564Y-12289396D02*
X12049040Y-12298920D01*
X12049040Y-12298920D02*
X12029992Y-12308444D01*
X12029992Y-12308444D02*
X12001421Y-12308444D01*
X12182373Y-12308444D02*
X12163326Y-12298920D01*
X12163326Y-12298920D02*
X12153802Y-12279872D01*
X12153802Y-12279872D02*
X12153802Y-12108444D01*
X12334754Y-12298920D02*
X12315707Y-12308444D01*
X12315707Y-12308444D02*
X12277611Y-12308444D01*
X12277611Y-12308444D02*
X12258564Y-12298920D01*
X12258564Y-12298920D02*
X12249040Y-12279872D01*
X12249040Y-12279872D02*
X12249040Y-12203682D01*
X12249040Y-12203682D02*
X12258564Y-12184634D01*
X12258564Y-12184634D02*
X12277611Y-12175110D01*
X12277611Y-12175110D02*
X12315707Y-12175110D01*
X12315707Y-12175110D02*
X12334754Y-12184634D01*
X12334754Y-12184634D02*
X12344278Y-12203682D01*
X12344278Y-12203682D02*
X12344278Y-12222729D01*
X12344278Y-12222729D02*
X12249040Y-12241777D01*
X12420468Y-12298920D02*
X12439516Y-12308444D01*
X12439516Y-12308444D02*
X12477611Y-12308444D01*
X12477611Y-12308444D02*
X12496659Y-12298920D01*
X12496659Y-12298920D02*
X12506183Y-12279872D01*
X12506183Y-12279872D02*
X12506183Y-12270348D01*
X12506183Y-12270348D02*
X12496659Y-12251301D01*
X12496659Y-12251301D02*
X12477611Y-12241777D01*
X12477611Y-12241777D02*
X12449040Y-12241777D01*
X12449040Y-12241777D02*
X12429992Y-12232253D01*
X12429992Y-12232253D02*
X12420468Y-12213206D01*
X12420468Y-12213206D02*
X12420468Y-12203682D01*
X12420468Y-12203682D02*
X12429992Y-12184634D01*
X12429992Y-12184634D02*
X12449040Y-12175110D01*
X12449040Y-12175110D02*
X12477611Y-12175110D01*
X12477611Y-12175110D02*
X12496659Y-12184634D01*
X12572849Y-12384634D02*
X12582373Y-12375110D01*
X12582373Y-12375110D02*
X12601421Y-12346539D01*
X12601421Y-12346539D02*
X12610945Y-12327491D01*
X12610945Y-12327491D02*
X12620468Y-12298920D01*
X12620468Y-12298920D02*
X12629992Y-12251301D01*
X12629992Y-12251301D02*
X12629992Y-12213206D01*
X12629992Y-12213206D02*
X12620468Y-12165587D01*
X12620468Y-12165587D02*
X12610945Y-12137015D01*
X12610945Y-12137015D02*
X12601421Y-12117968D01*
X12601421Y-12117968D02*
X12582373Y-12089396D01*
X12582373Y-12089396D02*
X12572849Y-12079872D01*
D12*
X7592666Y-12516316D02*
X7592666Y-12445604D01*
X7521955Y-12445604D01*
X7521955Y-12516316D01*
X7592666Y-12516316D01*
D11*
X7972849Y-12572444D02*
X7858563Y-12572444D01*
X7915706Y-12572444D02*
X7915706Y-12372444D01*
X7915706Y-12372444D02*
X7896658Y-12401015D01*
X7896658Y-12401015D02*
X7877611Y-12420063D01*
X7877611Y-12420063D02*
X7858563Y-12429587D01*
X8058563Y-12553396D02*
X8068087Y-12562920D01*
X8068087Y-12562920D02*
X8058563Y-12572444D01*
X8058563Y-12572444D02*
X8049039Y-12562920D01*
X8049039Y-12562920D02*
X8058563Y-12553396D01*
X8058563Y-12553396D02*
X8058563Y-12572444D01*
X8191897Y-12372444D02*
X8210944Y-12372444D01*
X8210944Y-12372444D02*
X8229992Y-12381968D01*
X8229992Y-12381968D02*
X8239516Y-12391491D01*
X8239516Y-12391491D02*
X8249039Y-12410539D01*
X8249039Y-12410539D02*
X8258563Y-12448634D01*
X8258563Y-12448634D02*
X8258563Y-12496253D01*
X8258563Y-12496253D02*
X8249039Y-12534348D01*
X8249039Y-12534348D02*
X8239516Y-12553396D01*
X8239516Y-12553396D02*
X8229992Y-12562920D01*
X8229992Y-12562920D02*
X8210944Y-12572444D01*
X8210944Y-12572444D02*
X8191897Y-12572444D01*
X8191897Y-12572444D02*
X8172849Y-12562920D01*
X8172849Y-12562920D02*
X8163325Y-12553396D01*
X8163325Y-12553396D02*
X8153801Y-12534348D01*
X8153801Y-12534348D02*
X8144278Y-12496253D01*
X8144278Y-12496253D02*
X8144278Y-12448634D01*
X8144278Y-12448634D02*
X8153801Y-12410539D01*
X8153801Y-12410539D02*
X8163325Y-12391491D01*
X8163325Y-12391491D02*
X8172849Y-12381968D01*
X8172849Y-12381968D02*
X8191897Y-12372444D01*
X8382373Y-12372444D02*
X8401421Y-12372444D01*
X8401421Y-12372444D02*
X8420468Y-12381968D01*
X8420468Y-12381968D02*
X8429992Y-12391491D01*
X8429992Y-12391491D02*
X8439516Y-12410539D01*
X8439516Y-12410539D02*
X8449040Y-12448634D01*
X8449040Y-12448634D02*
X8449040Y-12496253D01*
X8449040Y-12496253D02*
X8439516Y-12534348D01*
X8439516Y-12534348D02*
X8429992Y-12553396D01*
X8429992Y-12553396D02*
X8420468Y-12562920D01*
X8420468Y-12562920D02*
X8401421Y-12572444D01*
X8401421Y-12572444D02*
X8382373Y-12572444D01*
X8382373Y-12572444D02*
X8363325Y-12562920D01*
X8363325Y-12562920D02*
X8353801Y-12553396D01*
X8353801Y-12553396D02*
X8344278Y-12534348D01*
X8344278Y-12534348D02*
X8334754Y-12496253D01*
X8334754Y-12496253D02*
X8334754Y-12448634D01*
X8334754Y-12448634D02*
X8344278Y-12410539D01*
X8344278Y-12410539D02*
X8353801Y-12391491D01*
X8353801Y-12391491D02*
X8363325Y-12381968D01*
X8363325Y-12381968D02*
X8382373Y-12372444D01*
X8572849Y-12372444D02*
X8591897Y-12372444D01*
X8591897Y-12372444D02*
X8610944Y-12381968D01*
X8610944Y-12381968D02*
X8620468Y-12391491D01*
X8620468Y-12391491D02*
X8629992Y-12410539D01*
X8629992Y-12410539D02*
X8639516Y-12448634D01*
X8639516Y-12448634D02*
X8639516Y-12496253D01*
X8639516Y-12496253D02*
X8629992Y-12534348D01*
X8629992Y-12534348D02*
X8620468Y-12553396D01*
X8620468Y-12553396D02*
X8610944Y-12562920D01*
X8610944Y-12562920D02*
X8591897Y-12572444D01*
X8591897Y-12572444D02*
X8572849Y-12572444D01*
X8572849Y-12572444D02*
X8553801Y-12562920D01*
X8553801Y-12562920D02*
X8544278Y-12553396D01*
X8544278Y-12553396D02*
X8534754Y-12534348D01*
X8534754Y-12534348D02*
X8525230Y-12496253D01*
X8525230Y-12496253D02*
X8525230Y-12448634D01*
X8525230Y-12448634D02*
X8534754Y-12410539D01*
X8534754Y-12410539D02*
X8544278Y-12391491D01*
X8544278Y-12391491D02*
X8553801Y-12381968D01*
X8553801Y-12381968D02*
X8572849Y-12372444D01*
X8725230Y-12572444D02*
X8725230Y-12439110D01*
X8725230Y-12458158D02*
X8734754Y-12448634D01*
X8734754Y-12448634D02*
X8753801Y-12439110D01*
X8753801Y-12439110D02*
X8782373Y-12439110D01*
X8782373Y-12439110D02*
X8801421Y-12448634D01*
X8801421Y-12448634D02*
X8810944Y-12467682D01*
X8810944Y-12467682D02*
X8810944Y-12572444D01*
X8810944Y-12467682D02*
X8820468Y-12448634D01*
X8820468Y-12448634D02*
X8839516Y-12439110D01*
X8839516Y-12439110D02*
X8868087Y-12439110D01*
X8868087Y-12439110D02*
X8887135Y-12448634D01*
X8887135Y-12448634D02*
X8896659Y-12467682D01*
X8896659Y-12467682D02*
X8896659Y-12572444D01*
X8991897Y-12572444D02*
X8991897Y-12439110D01*
X8991897Y-12458158D02*
X9001421Y-12448634D01*
X9001421Y-12448634D02*
X9020468Y-12439110D01*
X9020468Y-12439110D02*
X9049040Y-12439110D01*
X9049040Y-12439110D02*
X9068087Y-12448634D01*
X9068087Y-12448634D02*
X9077611Y-12467682D01*
X9077611Y-12467682D02*
X9077611Y-12572444D01*
X9077611Y-12467682D02*
X9087135Y-12448634D01*
X9087135Y-12448634D02*
X9106182Y-12439110D01*
X9106182Y-12439110D02*
X9134754Y-12439110D01*
X9134754Y-12439110D02*
X9153802Y-12448634D01*
X9153802Y-12448634D02*
X9163325Y-12467682D01*
X9163325Y-12467682D02*
X9163325Y-12572444D01*
X9553802Y-12362920D02*
X9382373Y-12620063D01*
X9810944Y-12372444D02*
X9829992Y-12372444D01*
X9829992Y-12372444D02*
X9849040Y-12381968D01*
X9849040Y-12381968D02*
X9858564Y-12391491D01*
X9858564Y-12391491D02*
X9868087Y-12410539D01*
X9868087Y-12410539D02*
X9877611Y-12448634D01*
X9877611Y-12448634D02*
X9877611Y-12496253D01*
X9877611Y-12496253D02*
X9868087Y-12534348D01*
X9868087Y-12534348D02*
X9858564Y-12553396D01*
X9858564Y-12553396D02*
X9849040Y-12562920D01*
X9849040Y-12562920D02*
X9829992Y-12572444D01*
X9829992Y-12572444D02*
X9810944Y-12572444D01*
X9810944Y-12572444D02*
X9791897Y-12562920D01*
X9791897Y-12562920D02*
X9782373Y-12553396D01*
X9782373Y-12553396D02*
X9772849Y-12534348D01*
X9772849Y-12534348D02*
X9763325Y-12496253D01*
X9763325Y-12496253D02*
X9763325Y-12448634D01*
X9763325Y-12448634D02*
X9772849Y-12410539D01*
X9772849Y-12410539D02*
X9782373Y-12391491D01*
X9782373Y-12391491D02*
X9791897Y-12381968D01*
X9791897Y-12381968D02*
X9810944Y-12372444D01*
X9963325Y-12553396D02*
X9972849Y-12562920D01*
X9972849Y-12562920D02*
X9963325Y-12572444D01*
X9963325Y-12572444D02*
X9953802Y-12562920D01*
X9953802Y-12562920D02*
X9963325Y-12553396D01*
X9963325Y-12553396D02*
X9963325Y-12572444D01*
X10096659Y-12372444D02*
X10115706Y-12372444D01*
X10115706Y-12372444D02*
X10134754Y-12381968D01*
X10134754Y-12381968D02*
X10144278Y-12391491D01*
X10144278Y-12391491D02*
X10153802Y-12410539D01*
X10153802Y-12410539D02*
X10163325Y-12448634D01*
X10163325Y-12448634D02*
X10163325Y-12496253D01*
X10163325Y-12496253D02*
X10153802Y-12534348D01*
X10153802Y-12534348D02*
X10144278Y-12553396D01*
X10144278Y-12553396D02*
X10134754Y-12562920D01*
X10134754Y-12562920D02*
X10115706Y-12572444D01*
X10115706Y-12572444D02*
X10096659Y-12572444D01*
X10096659Y-12572444D02*
X10077611Y-12562920D01*
X10077611Y-12562920D02*
X10068087Y-12553396D01*
X10068087Y-12553396D02*
X10058564Y-12534348D01*
X10058564Y-12534348D02*
X10049040Y-12496253D01*
X10049040Y-12496253D02*
X10049040Y-12448634D01*
X10049040Y-12448634D02*
X10058564Y-12410539D01*
X10058564Y-12410539D02*
X10068087Y-12391491D01*
X10068087Y-12391491D02*
X10077611Y-12381968D01*
X10077611Y-12381968D02*
X10096659Y-12372444D01*
X10229992Y-12372444D02*
X10353802Y-12372444D01*
X10353802Y-12372444D02*
X10287135Y-12448634D01*
X10287135Y-12448634D02*
X10315706Y-12448634D01*
X10315706Y-12448634D02*
X10334754Y-12458158D01*
X10334754Y-12458158D02*
X10344278Y-12467682D01*
X10344278Y-12467682D02*
X10353802Y-12486729D01*
X10353802Y-12486729D02*
X10353802Y-12534348D01*
X10353802Y-12534348D02*
X10344278Y-12553396D01*
X10344278Y-12553396D02*
X10334754Y-12562920D01*
X10334754Y-12562920D02*
X10315706Y-12572444D01*
X10315706Y-12572444D02*
X10258564Y-12572444D01*
X10258564Y-12572444D02*
X10239516Y-12562920D01*
X10239516Y-12562920D02*
X10229992Y-12553396D01*
X10449040Y-12572444D02*
X10487135Y-12572444D01*
X10487135Y-12572444D02*
X10506183Y-12562920D01*
X10506183Y-12562920D02*
X10515706Y-12553396D01*
X10515706Y-12553396D02*
X10534754Y-12524825D01*
X10534754Y-12524825D02*
X10544278Y-12486729D01*
X10544278Y-12486729D02*
X10544278Y-12410539D01*
X10544278Y-12410539D02*
X10534754Y-12391491D01*
X10534754Y-12391491D02*
X10525230Y-12381968D01*
X10525230Y-12381968D02*
X10506183Y-12372444D01*
X10506183Y-12372444D02*
X10468087Y-12372444D01*
X10468087Y-12372444D02*
X10449040Y-12381968D01*
X10449040Y-12381968D02*
X10439516Y-12391491D01*
X10439516Y-12391491D02*
X10429992Y-12410539D01*
X10429992Y-12410539D02*
X10429992Y-12458158D01*
X10429992Y-12458158D02*
X10439516Y-12477206D01*
X10439516Y-12477206D02*
X10449040Y-12486729D01*
X10449040Y-12486729D02*
X10468087Y-12496253D01*
X10468087Y-12496253D02*
X10506183Y-12496253D01*
X10506183Y-12496253D02*
X10525230Y-12486729D01*
X10525230Y-12486729D02*
X10534754Y-12477206D01*
X10534754Y-12477206D02*
X10544278Y-12458158D01*
X10715706Y-12439110D02*
X10715706Y-12572444D01*
X10668087Y-12362920D02*
X10620468Y-12505777D01*
X10620468Y-12505777D02*
X10744278Y-12505777D01*
X10810945Y-12372444D02*
X10810945Y-12410539D01*
X10887135Y-12372444D02*
X10887135Y-12410539D01*
X11182373Y-12648634D02*
X11172849Y-12639110D01*
X11172849Y-12639110D02*
X11153802Y-12610539D01*
X11153802Y-12610539D02*
X11144278Y-12591491D01*
X11144278Y-12591491D02*
X11134754Y-12562920D01*
X11134754Y-12562920D02*
X11125230Y-12515301D01*
X11125230Y-12515301D02*
X11125230Y-12477206D01*
X11125230Y-12477206D02*
X11134754Y-12429587D01*
X11134754Y-12429587D02*
X11144278Y-12401015D01*
X11144278Y-12401015D02*
X11153802Y-12381968D01*
X11153802Y-12381968D02*
X11172849Y-12353396D01*
X11172849Y-12353396D02*
X11182373Y-12343872D01*
X11363325Y-12572444D02*
X11249040Y-12572444D01*
X11306183Y-12572444D02*
X11306183Y-12372444D01*
X11306183Y-12372444D02*
X11287135Y-12401015D01*
X11287135Y-12401015D02*
X11268087Y-12420063D01*
X11268087Y-12420063D02*
X11249040Y-12429587D01*
X11487135Y-12372444D02*
X11506183Y-12372444D01*
X11506183Y-12372444D02*
X11525230Y-12381968D01*
X11525230Y-12381968D02*
X11534754Y-12391491D01*
X11534754Y-12391491D02*
X11544278Y-12410539D01*
X11544278Y-12410539D02*
X11553802Y-12448634D01*
X11553802Y-12448634D02*
X11553802Y-12496253D01*
X11553802Y-12496253D02*
X11544278Y-12534348D01*
X11544278Y-12534348D02*
X11534754Y-12553396D01*
X11534754Y-12553396D02*
X11525230Y-12562920D01*
X11525230Y-12562920D02*
X11506183Y-12572444D01*
X11506183Y-12572444D02*
X11487135Y-12572444D01*
X11487135Y-12572444D02*
X11468087Y-12562920D01*
X11468087Y-12562920D02*
X11458564Y-12553396D01*
X11458564Y-12553396D02*
X11449040Y-12534348D01*
X11449040Y-12534348D02*
X11439516Y-12496253D01*
X11439516Y-12496253D02*
X11439516Y-12448634D01*
X11439516Y-12448634D02*
X11449040Y-12410539D01*
X11449040Y-12410539D02*
X11458564Y-12391491D01*
X11458564Y-12391491D02*
X11468087Y-12381968D01*
X11468087Y-12381968D02*
X11487135Y-12372444D01*
X11791897Y-12572444D02*
X11791897Y-12372444D01*
X11877611Y-12572444D02*
X11877611Y-12467682D01*
X11877611Y-12467682D02*
X11868087Y-12448634D01*
X11868087Y-12448634D02*
X11849040Y-12439110D01*
X11849040Y-12439110D02*
X11820468Y-12439110D01*
X11820468Y-12439110D02*
X11801421Y-12448634D01*
X11801421Y-12448634D02*
X11791897Y-12458158D01*
X12001421Y-12572444D02*
X11982373Y-12562920D01*
X11982373Y-12562920D02*
X11972849Y-12553396D01*
X11972849Y-12553396D02*
X11963326Y-12534348D01*
X11963326Y-12534348D02*
X11963326Y-12477206D01*
X11963326Y-12477206D02*
X11972849Y-12458158D01*
X11972849Y-12458158D02*
X11982373Y-12448634D01*
X11982373Y-12448634D02*
X12001421Y-12439110D01*
X12001421Y-12439110D02*
X12029992Y-12439110D01*
X12029992Y-12439110D02*
X12049040Y-12448634D01*
X12049040Y-12448634D02*
X12058564Y-12458158D01*
X12058564Y-12458158D02*
X12068087Y-12477206D01*
X12068087Y-12477206D02*
X12068087Y-12534348D01*
X12068087Y-12534348D02*
X12058564Y-12553396D01*
X12058564Y-12553396D02*
X12049040Y-12562920D01*
X12049040Y-12562920D02*
X12029992Y-12572444D01*
X12029992Y-12572444D02*
X12001421Y-12572444D01*
X12182373Y-12572444D02*
X12163326Y-12562920D01*
X12163326Y-12562920D02*
X12153802Y-12543872D01*
X12153802Y-12543872D02*
X12153802Y-12372444D01*
X12334754Y-12562920D02*
X12315707Y-12572444D01*
X12315707Y-12572444D02*
X12277611Y-12572444D01*
X12277611Y-12572444D02*
X12258564Y-12562920D01*
X12258564Y-12562920D02*
X12249040Y-12543872D01*
X12249040Y-12543872D02*
X12249040Y-12467682D01*
X12249040Y-12467682D02*
X12258564Y-12448634D01*
X12258564Y-12448634D02*
X12277611Y-12439110D01*
X12277611Y-12439110D02*
X12315707Y-12439110D01*
X12315707Y-12439110D02*
X12334754Y-12448634D01*
X12334754Y-12448634D02*
X12344278Y-12467682D01*
X12344278Y-12467682D02*
X12344278Y-12486729D01*
X12344278Y-12486729D02*
X12249040Y-12505777D01*
X12420468Y-12562920D02*
X12439516Y-12572444D01*
X12439516Y-12572444D02*
X12477611Y-12572444D01*
X12477611Y-12572444D02*
X12496659Y-12562920D01*
X12496659Y-12562920D02*
X12506183Y-12543872D01*
X12506183Y-12543872D02*
X12506183Y-12534348D01*
X12506183Y-12534348D02*
X12496659Y-12515301D01*
X12496659Y-12515301D02*
X12477611Y-12505777D01*
X12477611Y-12505777D02*
X12449040Y-12505777D01*
X12449040Y-12505777D02*
X12429992Y-12496253D01*
X12429992Y-12496253D02*
X12420468Y-12477206D01*
X12420468Y-12477206D02*
X12420468Y-12467682D01*
X12420468Y-12467682D02*
X12429992Y-12448634D01*
X12429992Y-12448634D02*
X12449040Y-12439110D01*
X12449040Y-12439110D02*
X12477611Y-12439110D01*
X12477611Y-12439110D02*
X12496659Y-12448634D01*
X12572849Y-12648634D02*
X12582373Y-12639110D01*
X12582373Y-12639110D02*
X12601421Y-12610539D01*
X12601421Y-12610539D02*
X12610945Y-12591491D01*
X12610945Y-12591491D02*
X12620468Y-12562920D01*
X12620468Y-12562920D02*
X12629992Y-12515301D01*
X12629992Y-12515301D02*
X12629992Y-12477206D01*
X12629992Y-12477206D02*
X12620468Y-12429587D01*
X12620468Y-12429587D02*
X12610945Y-12401015D01*
X12610945Y-12401015D02*
X12601421Y-12381968D01*
X12601421Y-12381968D02*
X12582373Y-12353396D01*
X12582373Y-12353396D02*
X12572849Y-12343872D01*
M02*
